<mxfile host="app.diagrams.net" agent="Mozilla/5.0 (Windows NT 10.0; Win64; x64) AppleWebKit/537.36 (KHTML, like Gecko) Chrome/137.0.0.0 Safari/537.36" version="28.2.8">
  <diagram name="PÃ¡gina-1" id="yC_Nv15zv4otKrWb0r18">
    <mxGraphModel dx="1426" dy="733" grid="1" gridSize="10" guides="1" tooltips="1" connect="1" arrows="1" fold="1" page="1" pageScale="1" pageWidth="99827" pageHeight="991169" math="0" shadow="0">
      <root>
        <mxCell id="0" />
        <mxCell id="1" parent="0" />
        <mxCell id="aVHQifymBFc_l4_SO7kh-340" style="edgeStyle=orthogonalEdgeStyle;rounded=0;orthogonalLoop=1;jettySize=auto;html=1;exitX=1;exitY=1;exitDx=0;exitDy=0;entryX=1;entryY=0.5;entryDx=0;entryDy=0;" parent="1" edge="1">
          <mxGeometry relative="1" as="geometry">
            <mxPoint x="4581.284271247461" y="1528.2842712474612" as="sourcePoint" />
          </mxGeometry>
        </mxCell>
        <mxCell id="aVHQifymBFc_l4_SO7kh-550" style="edgeStyle=orthogonalEdgeStyle;rounded=0;orthogonalLoop=1;jettySize=auto;html=1;exitX=0;exitY=0.5;exitDx=0;exitDy=0;entryX=1;entryY=0.5;entryDx=0;entryDy=0;" parent="1" source="aVHQifymBFc_l4_SO7kh-551" target="aVHQifymBFc_l4_SO7kh-553" edge="1">
          <mxGeometry relative="1" as="geometry" />
        </mxCell>
        <mxCell id="aVHQifymBFc_l4_SO7kh-551" value="Sistema de Cadena de medios audiovisuales" style="ellipse;whiteSpace=wrap;html=1;aspect=fixed;" parent="1" vertex="1">
          <mxGeometry x="5180" y="1660" width="200" height="200" as="geometry" />
        </mxCell>
        <mxCell id="aVHQifymBFc_l4_SO7kh-552" style="edgeStyle=orthogonalEdgeStyle;rounded=0;orthogonalLoop=1;jettySize=auto;html=1;exitX=1;exitY=0.25;exitDx=0;exitDy=0;entryX=0.003;entryY=0.423;entryDx=0;entryDy=0;entryPerimeter=0;" parent="1" source="aVHQifymBFc_l4_SO7kh-553" target="aVHQifymBFc_l4_SO7kh-551" edge="1">
          <mxGeometry relative="1" as="geometry" />
        </mxCell>
        <mxCell id="aVHQifymBFc_l4_SO7kh-553" value="Empleado" style="rounded=0;whiteSpace=wrap;html=1;" parent="1" vertex="1">
          <mxGeometry x="4980" y="1730" width="120" height="60" as="geometry" />
        </mxCell>
        <mxCell id="wUyjelmsx-gmg9dhheAU-3" style="edgeStyle=orthogonalEdgeStyle;rounded=0;orthogonalLoop=1;jettySize=auto;html=1;exitX=0.75;exitY=0;exitDx=0;exitDy=0;entryX=0;entryY=0.5;entryDx=0;entryDy=0;" parent="1" source="aVHQifymBFc_l4_SO7kh-555" target="wUyjelmsx-gmg9dhheAU-1" edge="1">
          <mxGeometry relative="1" as="geometry" />
        </mxCell>
        <mxCell id="aVHQifymBFc_l4_SO7kh-555" value="Empleado" style="rounded=0;whiteSpace=wrap;html=1;" parent="1" vertex="1">
          <mxGeometry x="5820" y="1690" width="120" height="60" as="geometry" />
        </mxCell>
        <mxCell id="aVHQifymBFc_l4_SO7kh-556" style="edgeStyle=orthogonalEdgeStyle;rounded=0;orthogonalLoop=1;jettySize=auto;html=1;" parent="1" source="aVHQifymBFc_l4_SO7kh-566" target="aVHQifymBFc_l4_SO7kh-567" edge="1">
          <mxGeometry relative="1" as="geometry" />
        </mxCell>
        <mxCell id="aVHQifymBFc_l4_SO7kh-557" style="edgeStyle=orthogonalEdgeStyle;rounded=0;orthogonalLoop=1;jettySize=auto;html=1;exitX=1;exitY=0.5;exitDx=0;exitDy=0;entryX=1;entryY=0.5;entryDx=0;entryDy=0;" parent="1" source="aVHQifymBFc_l4_SO7kh-566" target="aVHQifymBFc_l4_SO7kh-568" edge="1">
          <mxGeometry relative="1" as="geometry" />
        </mxCell>
        <mxCell id="aVHQifymBFc_l4_SO7kh-558" style="edgeStyle=orthogonalEdgeStyle;rounded=0;orthogonalLoop=1;jettySize=auto;html=1;exitX=1;exitY=0.5;exitDx=0;exitDy=0;entryX=1;entryY=0.5;entryDx=0;entryDy=0;" parent="1" source="aVHQifymBFc_l4_SO7kh-566" target="aVHQifymBFc_l4_SO7kh-569" edge="1">
          <mxGeometry relative="1" as="geometry" />
        </mxCell>
        <mxCell id="aVHQifymBFc_l4_SO7kh-561" style="edgeStyle=orthogonalEdgeStyle;rounded=0;orthogonalLoop=1;jettySize=auto;html=1;exitX=1;exitY=0.5;exitDx=0;exitDy=0;entryX=1;entryY=0.5;entryDx=0;entryDy=0;" parent="1" source="aVHQifymBFc_l4_SO7kh-566" target="aVHQifymBFc_l4_SO7kh-572" edge="1">
          <mxGeometry relative="1" as="geometry" />
        </mxCell>
        <mxCell id="aVHQifymBFc_l4_SO7kh-562" style="edgeStyle=orthogonalEdgeStyle;rounded=0;orthogonalLoop=1;jettySize=auto;html=1;exitX=1;exitY=0.5;exitDx=0;exitDy=0;entryX=1;entryY=0.5;entryDx=0;entryDy=0;" parent="1" source="aVHQifymBFc_l4_SO7kh-566" target="aVHQifymBFc_l4_SO7kh-573" edge="1">
          <mxGeometry relative="1" as="geometry" />
        </mxCell>
        <mxCell id="aVHQifymBFc_l4_SO7kh-563" style="edgeStyle=orthogonalEdgeStyle;rounded=0;orthogonalLoop=1;jettySize=auto;html=1;exitX=1;exitY=0.5;exitDx=0;exitDy=0;entryX=1;entryY=0.5;entryDx=0;entryDy=0;" parent="1" source="aVHQifymBFc_l4_SO7kh-566" target="aVHQifymBFc_l4_SO7kh-574" edge="1">
          <mxGeometry relative="1" as="geometry" />
        </mxCell>
        <mxCell id="aVHQifymBFc_l4_SO7kh-564" style="edgeStyle=orthogonalEdgeStyle;rounded=0;orthogonalLoop=1;jettySize=auto;html=1;exitX=1;exitY=0.5;exitDx=0;exitDy=0;entryX=1;entryY=0.5;entryDx=0;entryDy=0;" parent="1" source="aVHQifymBFc_l4_SO7kh-566" target="aVHQifymBFc_l4_SO7kh-575" edge="1">
          <mxGeometry relative="1" as="geometry" />
        </mxCell>
        <mxCell id="aVHQifymBFc_l4_SO7kh-565" style="edgeStyle=orthogonalEdgeStyle;rounded=0;orthogonalLoop=1;jettySize=auto;html=1;exitX=1;exitY=0.5;exitDx=0;exitDy=0;entryX=1;entryY=0.5;entryDx=0;entryDy=0;" parent="1" source="aVHQifymBFc_l4_SO7kh-566" target="aVHQifymBFc_l4_SO7kh-576" edge="1">
          <mxGeometry relative="1" as="geometry" />
        </mxCell>
        <mxCell id="aVHQifymBFc_l4_SO7kh-566" value="Iniciar Sesion" style="ellipse;whiteSpace=wrap;html=1;aspect=fixed;" parent="1" vertex="1">
          <mxGeometry x="6010" y="1655" width="130" height="130" as="geometry" />
        </mxCell>
        <mxCell id="aVHQifymBFc_l4_SO7kh-567" value="Gestionar Contenidos" style="ellipse;whiteSpace=wrap;html=1;aspect=fixed;" parent="1" vertex="1">
          <mxGeometry x="6010" y="1860" width="130" height="130" as="geometry" />
        </mxCell>
        <mxCell id="pgeDyyS8oXksHp_Y4zWR-24" style="edgeStyle=orthogonalEdgeStyle;rounded=0;orthogonalLoop=1;jettySize=auto;html=1;exitX=0.5;exitY=1;exitDx=0;exitDy=0;entryX=0.5;entryY=0;entryDx=0;entryDy=0;" parent="1" source="aVHQifymBFc_l4_SO7kh-568" target="aVHQifymBFc_l4_SO7kh-571" edge="1">
          <mxGeometry relative="1" as="geometry" />
        </mxCell>
        <mxCell id="aVHQifymBFc_l4_SO7kh-568" value="Visualizar Parrillas" style="ellipse;whiteSpace=wrap;html=1;aspect=fixed;" parent="1" vertex="1">
          <mxGeometry x="6010" y="2030" width="130" height="130" as="geometry" />
        </mxCell>
        <mxCell id="aVHQifymBFc_l4_SO7kh-569" value="Gestionar aprobacion y programacion" style="ellipse;whiteSpace=wrap;html=1;aspect=fixed;" parent="1" vertex="1">
          <mxGeometry x="6010" y="2370" width="130" height="130" as="geometry" />
        </mxCell>
        <mxCell id="aVHQifymBFc_l4_SO7kh-571" value="Gestionar Parrillas" style="ellipse;whiteSpace=wrap;html=1;aspect=fixed;" parent="1" vertex="1">
          <mxGeometry x="6010" y="2190" width="130" height="130" as="geometry" />
        </mxCell>
        <mxCell id="aVHQifymBFc_l4_SO7kh-572" value="Controlar emision" style="ellipse;whiteSpace=wrap;html=1;aspect=fixed;" parent="1" vertex="1">
          <mxGeometry x="6010" y="2530" width="130" height="130" as="geometry" />
        </mxCell>
        <mxCell id="aVHQifymBFc_l4_SO7kh-573" value="Alertar errores" style="ellipse;whiteSpace=wrap;html=1;aspect=fixed;" parent="1" vertex="1">
          <mxGeometry x="6010" y="2690" width="130" height="130" as="geometry" />
        </mxCell>
        <mxCell id="aVHQifymBFc_l4_SO7kh-574" value="Gestionar ABM" style="ellipse;whiteSpace=wrap;html=1;aspect=fixed;" parent="1" vertex="1">
          <mxGeometry x="6010" y="2860" width="130" height="130" as="geometry" />
        </mxCell>
        <mxCell id="aVHQifymBFc_l4_SO7kh-575" value="Ver reportes" style="ellipse;whiteSpace=wrap;html=1;aspect=fixed;" parent="1" vertex="1">
          <mxGeometry x="6010" y="3030" width="130" height="130" as="geometry" />
        </mxCell>
        <mxCell id="aVHQifymBFc_l4_SO7kh-576" value="Gestionar posiciones" style="ellipse;whiteSpace=wrap;html=1;aspect=fixed;" parent="1" vertex="1">
          <mxGeometry x="6010" y="3200" width="130" height="130" as="geometry" />
        </mxCell>
        <mxCell id="aVHQifymBFc_l4_SO7kh-577" style="edgeStyle=orthogonalEdgeStyle;rounded=0;orthogonalLoop=1;jettySize=auto;html=1;entryX=0;entryY=0.5;entryDx=0;entryDy=0;" parent="1" source="aVHQifymBFc_l4_SO7kh-578" target="wUyjelmsx-gmg9dhheAU-7" edge="1">
          <mxGeometry relative="1" as="geometry" />
        </mxCell>
        <mxCell id="aVHQifymBFc_l4_SO7kh-578" value="Empleado" style="rounded=0;whiteSpace=wrap;html=1;" parent="1" vertex="1">
          <mxGeometry x="6900" y="1505" width="120" height="60" as="geometry" />
        </mxCell>
        <mxCell id="-kQVbCw0q-Fh1bAhad9V-2" style="edgeStyle=orthogonalEdgeStyle;rounded=0;orthogonalLoop=1;jettySize=auto;html=1;exitX=0.5;exitY=1;exitDx=0;exitDy=0;entryX=0.5;entryY=0;entryDx=0;entryDy=0;" parent="1" source="aVHQifymBFc_l4_SO7kh-580" target="aVHQifymBFc_l4_SO7kh-687" edge="1">
          <mxGeometry relative="1" as="geometry" />
        </mxCell>
        <mxCell id="aVHQifymBFc_l4_SO7kh-580" value="Iniciar Sesion" style="ellipse;whiteSpace=wrap;html=1;aspect=fixed;" parent="1" vertex="1">
          <mxGeometry x="7090" y="1470" width="130" height="130" as="geometry" />
        </mxCell>
        <mxCell id="aVHQifymBFc_l4_SO7kh-583" value="Ver parrilla semanal" style="ellipse;whiteSpace=wrap;html=1;aspect=fixed;" parent="1" vertex="1">
          <mxGeometry x="6710" y="2860" width="130" height="130" as="geometry" />
        </mxCell>
        <mxCell id="aVHQifymBFc_l4_SO7kh-584" value="Gestionar estado" style="ellipse;whiteSpace=wrap;html=1;aspect=fixed;" parent="1" vertex="1">
          <mxGeometry x="6710" y="2410" width="130" height="130" as="geometry" />
        </mxCell>
        <mxCell id="aVHQifymBFc_l4_SO7kh-585" style="edgeStyle=orthogonalEdgeStyle;rounded=0;orthogonalLoop=1;jettySize=auto;html=1;exitX=0;exitY=0.5;exitDx=0;exitDy=0;entryX=1;entryY=0.474;entryDx=0;entryDy=0;entryPerimeter=0;" parent="1" source="aVHQifymBFc_l4_SO7kh-586" target="aVHQifymBFc_l4_SO7kh-621" edge="1">
          <mxGeometry relative="1" as="geometry" />
        </mxCell>
        <mxCell id="aVHQifymBFc_l4_SO7kh-586" value="Mover programa&amp;nbsp;" style="ellipse;whiteSpace=wrap;html=1;aspect=fixed;" parent="1" vertex="1">
          <mxGeometry x="7090" y="2088" width="130" height="130" as="geometry" />
        </mxCell>
        <mxCell id="aVHQifymBFc_l4_SO7kh-589" style="edgeStyle=orthogonalEdgeStyle;rounded=0;orthogonalLoop=1;jettySize=auto;html=1;exitX=0.5;exitY=1;exitDx=0;exitDy=0;" parent="1" source="aVHQifymBFc_l4_SO7kh-580" target="aVHQifymBFc_l4_SO7kh-605" edge="1">
          <mxGeometry relative="1" as="geometry">
            <mxPoint x="7220" y="1865" as="sourcePoint" />
          </mxGeometry>
        </mxCell>
        <mxCell id="aVHQifymBFc_l4_SO7kh-591" value="" style="endArrow=none;html=1;rounded=0;" parent="1" edge="1">
          <mxGeometry width="50" height="50" relative="1" as="geometry">
            <mxPoint x="7885" y="2308.92" as="sourcePoint" />
            <mxPoint x="7965" y="2309.08" as="targetPoint" />
            <Array as="points">
              <mxPoint x="7885" y="2308.92" />
            </Array>
          </mxGeometry>
        </mxCell>
        <mxCell id="aVHQifymBFc_l4_SO7kh-592" value="" style="endArrow=none;html=1;rounded=0;" parent="1" edge="1">
          <mxGeometry width="50" height="50" relative="1" as="geometry">
            <mxPoint x="7885" y="2329.08" as="sourcePoint" />
            <mxPoint x="7965" y="2329.2400000000002" as="targetPoint" />
            <Array as="points">
              <mxPoint x="7885" y="2329.08" />
            </Array>
          </mxGeometry>
        </mxCell>
        <mxCell id="aVHQifymBFc_l4_SO7kh-594" style="edgeStyle=orthogonalEdgeStyle;rounded=0;orthogonalLoop=1;jettySize=auto;html=1;exitX=0.5;exitY=1;exitDx=0;exitDy=0;" parent="1" source="aVHQifymBFc_l4_SO7kh-599" edge="1">
          <mxGeometry relative="1" as="geometry">
            <mxPoint x="6780" y="2170" as="targetPoint" />
          </mxGeometry>
        </mxCell>
        <mxCell id="aVHQifymBFc_l4_SO7kh-595" style="edgeStyle=orthogonalEdgeStyle;rounded=0;orthogonalLoop=1;jettySize=auto;html=1;exitX=0;exitY=0.5;exitDx=0;exitDy=0;entryX=0;entryY=0.5;entryDx=0;entryDy=0;" parent="1" source="aVHQifymBFc_l4_SO7kh-599" target="aVHQifymBFc_l4_SO7kh-606" edge="1">
          <mxGeometry relative="1" as="geometry" />
        </mxCell>
        <mxCell id="aVHQifymBFc_l4_SO7kh-596" style="edgeStyle=orthogonalEdgeStyle;rounded=0;orthogonalLoop=1;jettySize=auto;html=1;exitX=0;exitY=0.5;exitDx=0;exitDy=0;entryX=0;entryY=0.5;entryDx=0;entryDy=0;" parent="1" source="aVHQifymBFc_l4_SO7kh-599" target="aVHQifymBFc_l4_SO7kh-584" edge="1">
          <mxGeometry relative="1" as="geometry">
            <mxPoint x="6680" y="2410" as="targetPoint" />
          </mxGeometry>
        </mxCell>
        <mxCell id="aVHQifymBFc_l4_SO7kh-598" style="edgeStyle=orthogonalEdgeStyle;rounded=0;orthogonalLoop=1;jettySize=auto;html=1;exitX=0;exitY=0.5;exitDx=0;exitDy=0;entryX=0;entryY=0.5;entryDx=0;entryDy=0;" parent="1" source="aVHQifymBFc_l4_SO7kh-599" target="aVHQifymBFc_l4_SO7kh-583" edge="1">
          <mxGeometry relative="1" as="geometry" />
        </mxCell>
        <mxCell id="aVHQifymBFc_l4_SO7kh-599" value="Productor/Editor" style="rounded=0;whiteSpace=wrap;html=1;" parent="1" vertex="1">
          <mxGeometry x="6725" y="1980" width="120" height="60" as="geometry" />
        </mxCell>
        <mxCell id="aVHQifymBFc_l4_SO7kh-600" style="edgeStyle=orthogonalEdgeStyle;rounded=0;orthogonalLoop=1;jettySize=auto;html=1;exitX=0.5;exitY=1;exitDx=0;exitDy=0;entryX=0.5;entryY=0;entryDx=0;entryDy=0;" parent="1" source="aVHQifymBFc_l4_SO7kh-603" target="aVHQifymBFc_l4_SO7kh-586" edge="1">
          <mxGeometry relative="1" as="geometry" />
        </mxCell>
        <mxCell id="aVHQifymBFc_l4_SO7kh-601" style="edgeStyle=orthogonalEdgeStyle;rounded=0;orthogonalLoop=1;jettySize=auto;html=1;exitX=0;exitY=0.5;exitDx=0;exitDy=0;entryX=0;entryY=0.5;entryDx=0;entryDy=0;" parent="1" source="aVHQifymBFc_l4_SO7kh-603" target="aVHQifymBFc_l4_SO7kh-627" edge="1">
          <mxGeometry relative="1" as="geometry" />
        </mxCell>
        <mxCell id="aVHQifymBFc_l4_SO7kh-602" style="edgeStyle=orthogonalEdgeStyle;rounded=0;orthogonalLoop=1;jettySize=auto;html=1;exitX=0;exitY=0.5;exitDx=0;exitDy=0;entryX=0;entryY=0.5;entryDx=0;entryDy=0;" parent="1" source="aVHQifymBFc_l4_SO7kh-603" target="aVHQifymBFc_l4_SO7kh-664" edge="1">
          <mxGeometry relative="1" as="geometry" />
        </mxCell>
        <mxCell id="aVHQifymBFc_l4_SO7kh-603" value="Programador" style="rounded=0;whiteSpace=wrap;html=1;" parent="1" vertex="1">
          <mxGeometry x="7095" y="1980" width="120" height="60" as="geometry" />
        </mxCell>
        <mxCell id="aVHQifymBFc_l4_SO7kh-604" style="edgeStyle=orthogonalEdgeStyle;rounded=0;orthogonalLoop=1;jettySize=auto;html=1;exitX=0.5;exitY=1;exitDx=0;exitDy=0;" parent="1" source="aVHQifymBFc_l4_SO7kh-605" target="aVHQifymBFc_l4_SO7kh-636" edge="1">
          <mxGeometry relative="1" as="geometry" />
        </mxCell>
        <mxCell id="aVHQifymBFc_l4_SO7kh-605" value="Administrador" style="rounded=0;whiteSpace=wrap;html=1;" parent="1" vertex="1">
          <mxGeometry x="7520" y="1980" width="120" height="60" as="geometry" />
        </mxCell>
        <mxCell id="aVHQifymBFc_l4_SO7kh-606" value="Gestionar contenido" style="ellipse;whiteSpace=wrap;html=1;aspect=fixed;" parent="1" vertex="1">
          <mxGeometry x="6710" y="2173" width="130" height="130" as="geometry" />
        </mxCell>
        <mxCell id="aVHQifymBFc_l4_SO7kh-609" value="2" style="text;html=1;align=center;verticalAlign=middle;resizable=0;points=[];autosize=1;strokeColor=none;fillColor=none;" parent="1" vertex="1">
          <mxGeometry x="6760" y="2870" width="30" height="30" as="geometry" />
        </mxCell>
        <mxCell id="aVHQifymBFc_l4_SO7kh-610" value="" style="endArrow=none;html=1;rounded=0;" parent="1" edge="1">
          <mxGeometry width="50" height="50" relative="1" as="geometry">
            <mxPoint x="6900" y="2139.3" as="sourcePoint" />
            <mxPoint x="6980" y="2139.46" as="targetPoint" />
            <Array as="points">
              <mxPoint x="6900" y="2139.3" />
            </Array>
          </mxGeometry>
        </mxCell>
        <mxCell id="aVHQifymBFc_l4_SO7kh-611" value="" style="endArrow=none;html=1;rounded=0;" parent="1" edge="1">
          <mxGeometry width="50" height="50" relative="1" as="geometry">
            <mxPoint x="6900" y="2159.46" as="sourcePoint" />
            <mxPoint x="6980" y="2159.62" as="targetPoint" />
            <Array as="points">
              <mxPoint x="6900" y="2159.46" />
            </Array>
          </mxGeometry>
        </mxCell>
        <mxCell id="aVHQifymBFc_l4_SO7kh-612" style="edgeStyle=orthogonalEdgeStyle;rounded=0;orthogonalLoop=1;jettySize=auto;html=1;entryX=1;entryY=0.5;entryDx=0;entryDy=0;" parent="1" source="aVHQifymBFc_l4_SO7kh-613" target="aVHQifymBFc_l4_SO7kh-606" edge="1">
          <mxGeometry relative="1" as="geometry">
            <Array as="points">
              <mxPoint x="6940" y="2315" />
            </Array>
          </mxGeometry>
        </mxCell>
        <mxCell id="pgeDyyS8oXksHp_Y4zWR-33" style="edgeStyle=orthogonalEdgeStyle;rounded=0;orthogonalLoop=1;jettySize=auto;html=1;entryX=1;entryY=0;entryDx=0;entryDy=0;" parent="1" source="aVHQifymBFc_l4_SO7kh-613" edge="1">
          <mxGeometry relative="1" as="geometry">
            <Array as="points">
              <mxPoint x="6940" y="2060" />
              <mxPoint x="6391" y="2060" />
            </Array>
            <mxPoint x="6390.961940777125" y="2112.038059222875" as="targetPoint" />
          </mxGeometry>
        </mxCell>
        <mxCell id="aVHQifymBFc_l4_SO7kh-613" value="CONTENIDOS" style="text;html=1;align=center;verticalAlign=middle;resizable=0;points=[];autosize=1;strokeColor=none;fillColor=none;" parent="1" vertex="1">
          <mxGeometry x="6890" y="2138" width="100" height="30" as="geometry" />
        </mxCell>
        <mxCell id="aVHQifymBFc_l4_SO7kh-614" value="" style="endArrow=none;html=1;rounded=0;" parent="1" edge="1">
          <mxGeometry width="50" height="50" relative="1" as="geometry">
            <mxPoint x="6870" y="2450" as="sourcePoint" />
            <mxPoint x="6950" y="2450.16" as="targetPoint" />
            <Array as="points">
              <mxPoint x="6870" y="2450" />
            </Array>
          </mxGeometry>
        </mxCell>
        <mxCell id="aVHQifymBFc_l4_SO7kh-615" value="" style="endArrow=none;html=1;rounded=0;" parent="1" edge="1">
          <mxGeometry width="50" height="50" relative="1" as="geometry">
            <mxPoint x="6870" y="2470.16" as="sourcePoint" />
            <mxPoint x="6950" y="2470.32" as="targetPoint" />
            <Array as="points">
              <mxPoint x="6870" y="2470.16" />
            </Array>
          </mxGeometry>
        </mxCell>
        <mxCell id="aVHQifymBFc_l4_SO7kh-616" style="edgeStyle=orthogonalEdgeStyle;rounded=0;orthogonalLoop=1;jettySize=auto;html=1;" parent="1" source="aVHQifymBFc_l4_SO7kh-617" target="aVHQifymBFc_l4_SO7kh-584" edge="1">
          <mxGeometry relative="1" as="geometry" />
        </mxCell>
        <mxCell id="aVHQifymBFc_l4_SO7kh-617" value="ESTADOS" style="text;html=1;align=center;verticalAlign=middle;resizable=0;points=[];autosize=1;strokeColor=none;fillColor=none;" parent="1" vertex="1">
          <mxGeometry x="6870" y="2448" width="80" height="30" as="geometry" />
        </mxCell>
        <mxCell id="aVHQifymBFc_l4_SO7kh-618" value="" style="endArrow=none;html=1;rounded=0;" parent="1" edge="1">
          <mxGeometry width="50" height="50" relative="1" as="geometry">
            <mxPoint x="6905" y="2910" as="sourcePoint" />
            <mxPoint x="6975" y="2910" as="targetPoint" />
          </mxGeometry>
        </mxCell>
        <mxCell id="aVHQifymBFc_l4_SO7kh-619" value="" style="endArrow=none;html=1;rounded=0;" parent="1" edge="1">
          <mxGeometry width="50" height="50" relative="1" as="geometry">
            <mxPoint x="6905" y="2930" as="sourcePoint" />
            <mxPoint x="6975" y="2930" as="targetPoint" />
          </mxGeometry>
        </mxCell>
        <mxCell id="aVHQifymBFc_l4_SO7kh-620" style="edgeStyle=orthogonalEdgeStyle;rounded=0;orthogonalLoop=1;jettySize=auto;html=1;entryX=1;entryY=0.5;entryDx=0;entryDy=0;" parent="1" source="aVHQifymBFc_l4_SO7kh-621" target="aVHQifymBFc_l4_SO7kh-583" edge="1">
          <mxGeometry relative="1" as="geometry" />
        </mxCell>
        <mxCell id="aVHQifymBFc_l4_SO7kh-621" value="PARRILLA" style="text;html=1;align=center;verticalAlign=middle;resizable=0;points=[];autosize=1;strokeColor=none;fillColor=none;" parent="1" vertex="1">
          <mxGeometry x="6900" y="2910" width="80" height="30" as="geometry" />
        </mxCell>
        <mxCell id="aVHQifymBFc_l4_SO7kh-622" value="" style="endArrow=none;html=1;rounded=0;" parent="1" edge="1">
          <mxGeometry width="50" height="50" relative="1" as="geometry">
            <mxPoint x="7270" y="2109.3" as="sourcePoint" />
            <mxPoint x="7350" y="2109.46" as="targetPoint" />
            <Array as="points">
              <mxPoint x="7270" y="2109.3" />
            </Array>
          </mxGeometry>
        </mxCell>
        <mxCell id="aVHQifymBFc_l4_SO7kh-623" value="" style="endArrow=none;html=1;rounded=0;" parent="1" edge="1">
          <mxGeometry width="50" height="50" relative="1" as="geometry">
            <mxPoint x="7270" y="2129.46" as="sourcePoint" />
            <mxPoint x="7350" y="2129.62" as="targetPoint" />
            <Array as="points">
              <mxPoint x="7270" y="2129.46" />
            </Array>
          </mxGeometry>
        </mxCell>
        <mxCell id="aVHQifymBFc_l4_SO7kh-624" style="edgeStyle=orthogonalEdgeStyle;rounded=0;orthogonalLoop=1;jettySize=auto;html=1;" parent="1" source="aVHQifymBFc_l4_SO7kh-625" target="aVHQifymBFc_l4_SO7kh-586" edge="1">
          <mxGeometry relative="1" as="geometry" />
        </mxCell>
        <mxCell id="aVHQifymBFc_l4_SO7kh-684" style="edgeStyle=orthogonalEdgeStyle;rounded=0;orthogonalLoop=1;jettySize=auto;html=1;entryX=0;entryY=1;entryDx=0;entryDy=0;" parent="1" source="aVHQifymBFc_l4_SO7kh-625" target="aVHQifymBFc_l4_SO7kh-639" edge="1">
          <mxGeometry relative="1" as="geometry">
            <Array as="points">
              <mxPoint x="7290" y="2521" />
            </Array>
          </mxGeometry>
        </mxCell>
        <mxCell id="aVHQifymBFc_l4_SO7kh-625" value="PROGRAMA" style="text;html=1;align=center;verticalAlign=middle;resizable=0;points=[];autosize=1;strokeColor=none;fillColor=none;" parent="1" vertex="1">
          <mxGeometry x="7265" y="2108" width="90" height="30" as="geometry" />
        </mxCell>
        <mxCell id="aVHQifymBFc_l4_SO7kh-626" style="edgeStyle=orthogonalEdgeStyle;rounded=0;orthogonalLoop=1;jettySize=auto;html=1;" parent="1" source="aVHQifymBFc_l4_SO7kh-627" target="aVHQifymBFc_l4_SO7kh-663" edge="1">
          <mxGeometry relative="1" as="geometry" />
        </mxCell>
        <mxCell id="aVHQifymBFc_l4_SO7kh-627" value="Programar emision" style="ellipse;whiteSpace=wrap;html=1;aspect=fixed;" parent="1" vertex="1">
          <mxGeometry x="7090" y="2230" width="130" height="130" as="geometry" />
        </mxCell>
        <mxCell id="aVHQifymBFc_l4_SO7kh-628" style="edgeStyle=orthogonalEdgeStyle;rounded=0;orthogonalLoop=1;jettySize=auto;html=1;exitX=0;exitY=0.5;exitDx=0;exitDy=0;entryX=0;entryY=0.5;entryDx=0;entryDy=0;" parent="1" source="aVHQifymBFc_l4_SO7kh-636" target="aVHQifymBFc_l4_SO7kh-641" edge="1">
          <mxGeometry relative="1" as="geometry" />
        </mxCell>
        <mxCell id="aVHQifymBFc_l4_SO7kh-629" style="edgeStyle=orthogonalEdgeStyle;rounded=0;orthogonalLoop=1;jettySize=auto;html=1;exitX=0;exitY=0.5;exitDx=0;exitDy=0;entryX=0;entryY=0.5;entryDx=0;entryDy=0;" parent="1" source="aVHQifymBFc_l4_SO7kh-636" target="aVHQifymBFc_l4_SO7kh-639" edge="1">
          <mxGeometry relative="1" as="geometry" />
        </mxCell>
        <mxCell id="aVHQifymBFc_l4_SO7kh-630" style="edgeStyle=orthogonalEdgeStyle;rounded=0;orthogonalLoop=1;jettySize=auto;html=1;exitX=0;exitY=0.5;exitDx=0;exitDy=0;entryX=0;entryY=0.5;entryDx=0;entryDy=0;" parent="1" source="aVHQifymBFc_l4_SO7kh-636" target="aVHQifymBFc_l4_SO7kh-643" edge="1">
          <mxGeometry relative="1" as="geometry" />
        </mxCell>
        <mxCell id="aVHQifymBFc_l4_SO7kh-633" style="edgeStyle=orthogonalEdgeStyle;rounded=0;orthogonalLoop=1;jettySize=auto;html=1;exitX=0;exitY=0.5;exitDx=0;exitDy=0;entryX=0;entryY=0.5;entryDx=0;entryDy=0;" parent="1" source="aVHQifymBFc_l4_SO7kh-636" target="aVHQifymBFc_l4_SO7kh-645" edge="1">
          <mxGeometry relative="1" as="geometry" />
        </mxCell>
        <mxCell id="aVHQifymBFc_l4_SO7kh-634" style="edgeStyle=orthogonalEdgeStyle;rounded=0;orthogonalLoop=1;jettySize=auto;html=1;exitX=0;exitY=0.5;exitDx=0;exitDy=0;entryX=0;entryY=0.5;entryDx=0;entryDy=0;" parent="1" source="aVHQifymBFc_l4_SO7kh-636" target="aVHQifymBFc_l4_SO7kh-637" edge="1">
          <mxGeometry relative="1" as="geometry" />
        </mxCell>
        <mxCell id="aVHQifymBFc_l4_SO7kh-636" value="Ingresar Menu ABM" style="ellipse;whiteSpace=wrap;html=1;aspect=fixed;" parent="1" vertex="1">
          <mxGeometry x="7515" y="2108" width="130" height="130" as="geometry" />
        </mxCell>
        <mxCell id="aVHQifymBFc_l4_SO7kh-637" value="Reportes de audiencia" style="ellipse;whiteSpace=wrap;html=1;aspect=fixed;" parent="1" vertex="1">
          <mxGeometry x="7520" y="2870" width="130" height="130" as="geometry" />
        </mxCell>
        <mxCell id="aVHQifymBFc_l4_SO7kh-638" style="edgeStyle=orthogonalEdgeStyle;rounded=0;orthogonalLoop=1;jettySize=auto;html=1;exitX=0;exitY=0;exitDx=0;exitDy=0;entryX=1.008;entryY=0.559;entryDx=0;entryDy=0;entryPerimeter=0;" parent="1" source="aVHQifymBFc_l4_SO7kh-639" target="aVHQifymBFc_l4_SO7kh-625" edge="1">
          <mxGeometry relative="1" as="geometry" />
        </mxCell>
        <mxCell id="aVHQifymBFc_l4_SO7kh-639" value="Gestionar Programas" style="ellipse;whiteSpace=wrap;html=1;aspect=fixed;" parent="1" vertex="1">
          <mxGeometry x="7520" y="2410" width="130" height="130" as="geometry" />
        </mxCell>
        <mxCell id="aVHQifymBFc_l4_SO7kh-640" style="edgeStyle=orthogonalEdgeStyle;rounded=0;orthogonalLoop=1;jettySize=auto;html=1;exitX=1;exitY=0.5;exitDx=0;exitDy=0;" parent="1" source="aVHQifymBFc_l4_SO7kh-641" target="aVHQifymBFc_l4_SO7kh-670" edge="1">
          <mxGeometry relative="1" as="geometry" />
        </mxCell>
        <mxCell id="aVHQifymBFc_l4_SO7kh-641" value="Gestionar Segmentos" style="ellipse;whiteSpace=wrap;html=1;aspect=fixed;" parent="1" vertex="1">
          <mxGeometry x="7520" y="2260" width="130" height="130" as="geometry" />
        </mxCell>
        <mxCell id="-kQVbCw0q-Fh1bAhad9V-3" style="edgeStyle=orthogonalEdgeStyle;rounded=0;orthogonalLoop=1;jettySize=auto;html=1;exitX=1;exitY=0;exitDx=0;exitDy=0;" parent="1" source="aVHQifymBFc_l4_SO7kh-643" target="aVHQifymBFc_l4_SO7kh-653" edge="1">
          <mxGeometry relative="1" as="geometry" />
        </mxCell>
        <mxCell id="aVHQifymBFc_l4_SO7kh-643" value="Gestionar Usuarios" style="ellipse;whiteSpace=wrap;html=1;aspect=fixed;" parent="1" vertex="1">
          <mxGeometry x="7520" y="2550" width="130" height="130" as="geometry" />
        </mxCell>
        <mxCell id="aVHQifymBFc_l4_SO7kh-644" style="edgeStyle=orthogonalEdgeStyle;rounded=0;orthogonalLoop=1;jettySize=auto;html=1;" parent="1" source="aVHQifymBFc_l4_SO7kh-645" target="aVHQifymBFc_l4_SO7kh-659" edge="1">
          <mxGeometry relative="1" as="geometry" />
        </mxCell>
        <mxCell id="aVHQifymBFc_l4_SO7kh-645" value="Gestionar Plataformas" style="ellipse;whiteSpace=wrap;html=1;aspect=fixed;" parent="1" vertex="1">
          <mxGeometry x="7520" y="2690" width="130" height="130" as="geometry" />
        </mxCell>
        <mxCell id="aVHQifymBFc_l4_SO7kh-648" value="" style="endArrow=none;html=1;rounded=0;" parent="1" edge="1">
          <mxGeometry width="50" height="50" relative="1" as="geometry">
            <mxPoint x="7705" y="3010" as="sourcePoint" />
            <mxPoint x="7785" y="3010.16" as="targetPoint" />
            <Array as="points">
              <mxPoint x="7705" y="3010" />
            </Array>
          </mxGeometry>
        </mxCell>
        <mxCell id="aVHQifymBFc_l4_SO7kh-649" value="" style="endArrow=none;html=1;rounded=0;" parent="1" edge="1">
          <mxGeometry width="50" height="50" relative="1" as="geometry">
            <mxPoint x="7705" y="3040" as="sourcePoint" />
            <mxPoint x="7785" y="3040.16" as="targetPoint" />
            <Array as="points">
              <mxPoint x="7705" y="3040" />
            </Array>
          </mxGeometry>
        </mxCell>
        <mxCell id="aVHQifymBFc_l4_SO7kh-650" style="edgeStyle=orthogonalEdgeStyle;rounded=0;orthogonalLoop=1;jettySize=auto;html=1;entryX=1;entryY=0.5;entryDx=0;entryDy=0;" parent="1" source="aVHQifymBFc_l4_SO7kh-651" target="aVHQifymBFc_l4_SO7kh-637" edge="1">
          <mxGeometry relative="1" as="geometry" />
        </mxCell>
        <mxCell id="aVHQifymBFc_l4_SO7kh-651" value="REPORTES" style="text;html=1;align=center;verticalAlign=middle;resizable=0;points=[];autosize=1;strokeColor=none;fillColor=none;" parent="1" vertex="1">
          <mxGeometry x="7700" y="3010" width="90" height="30" as="geometry" />
        </mxCell>
        <mxCell id="aVHQifymBFc_l4_SO7kh-652" value="" style="endArrow=none;html=1;rounded=0;" parent="1" target="aVHQifymBFc_l4_SO7kh-653" edge="1">
          <mxGeometry width="50" height="50" relative="1" as="geometry">
            <mxPoint x="7880" y="2339" as="sourcePoint" />
            <mxPoint x="7960" y="2339.16" as="targetPoint" />
            <Array as="points" />
          </mxGeometry>
        </mxCell>
        <mxCell id="-kQVbCw0q-Fh1bAhad9V-4" style="edgeStyle=orthogonalEdgeStyle;rounded=0;orthogonalLoop=1;jettySize=auto;html=1;entryX=1;entryY=0.5;entryDx=0;entryDy=0;" parent="1" source="aVHQifymBFc_l4_SO7kh-653" target="aVHQifymBFc_l4_SO7kh-643" edge="1">
          <mxGeometry relative="1" as="geometry">
            <Array as="points">
              <mxPoint x="7820" y="2324" />
              <mxPoint x="7820" y="2615" />
            </Array>
          </mxGeometry>
        </mxCell>
        <mxCell id="wUyjelmsx-gmg9dhheAU-11" style="edgeStyle=orthogonalEdgeStyle;rounded=0;orthogonalLoop=1;jettySize=auto;html=1;entryX=1;entryY=0.5;entryDx=0;entryDy=0;" parent="1" source="aVHQifymBFc_l4_SO7kh-653" target="aVHQifymBFc_l4_SO7kh-580" edge="1">
          <mxGeometry relative="1" as="geometry">
            <Array as="points">
              <mxPoint x="7925" y="2290" />
              <mxPoint x="7850" y="2290" />
              <mxPoint x="7850" y="1535" />
            </Array>
          </mxGeometry>
        </mxCell>
        <mxCell id="aVHQifymBFc_l4_SO7kh-653" value="USUARIOS" style="text;html=1;align=center;verticalAlign=middle;resizable=0;points=[];autosize=1;strokeColor=none;fillColor=none;" parent="1" vertex="1">
          <mxGeometry x="7880" y="2309.08" width="90" height="30" as="geometry" />
        </mxCell>
        <mxCell id="aVHQifymBFc_l4_SO7kh-656" value="" style="endArrow=none;html=1;rounded=0;" parent="1" edge="1">
          <mxGeometry width="50" height="50" relative="1" as="geometry">
            <mxPoint x="7705" y="2679.17" as="sourcePoint" />
            <mxPoint x="7785" y="2679.33" as="targetPoint" />
            <Array as="points">
              <mxPoint x="7705" y="2679.17" />
            </Array>
          </mxGeometry>
        </mxCell>
        <mxCell id="aVHQifymBFc_l4_SO7kh-657" value="" style="endArrow=none;html=1;rounded=0;" parent="1" edge="1">
          <mxGeometry width="50" height="50" relative="1" as="geometry">
            <mxPoint x="7705" y="2709.17" as="sourcePoint" />
            <mxPoint x="7785" y="2709.33" as="targetPoint" />
            <Array as="points">
              <mxPoint x="7705" y="2709.17" />
            </Array>
          </mxGeometry>
        </mxCell>
        <mxCell id="aVHQifymBFc_l4_SO7kh-658" style="edgeStyle=orthogonalEdgeStyle;rounded=0;orthogonalLoop=1;jettySize=auto;html=1;entryX=1;entryY=1;entryDx=0;entryDy=0;" parent="1" source="aVHQifymBFc_l4_SO7kh-659" target="aVHQifymBFc_l4_SO7kh-645" edge="1">
          <mxGeometry relative="1" as="geometry">
            <Array as="points">
              <mxPoint x="7840" y="2694" />
              <mxPoint x="7840" y="2801" />
            </Array>
          </mxGeometry>
        </mxCell>
        <mxCell id="aVHQifymBFc_l4_SO7kh-659" value="PLATAFORMAS" style="text;html=1;align=center;verticalAlign=middle;resizable=0;points=[];autosize=1;strokeColor=none;fillColor=none;" parent="1" vertex="1">
          <mxGeometry x="7690" y="2679.17" width="110" height="30" as="geometry" />
        </mxCell>
        <mxCell id="aVHQifymBFc_l4_SO7kh-660" value="" style="endArrow=none;html=1;rounded=0;" parent="1" edge="1">
          <mxGeometry width="50" height="50" relative="1" as="geometry">
            <mxPoint x="7310" y="2281.3" as="sourcePoint" />
            <mxPoint x="7390" y="2281.46" as="targetPoint" />
            <Array as="points">
              <mxPoint x="7310" y="2281.3" />
            </Array>
          </mxGeometry>
        </mxCell>
        <mxCell id="aVHQifymBFc_l4_SO7kh-661" value="" style="endArrow=none;html=1;rounded=0;" parent="1" edge="1">
          <mxGeometry width="50" height="50" relative="1" as="geometry">
            <mxPoint x="7310" y="2301.46" as="sourcePoint" />
            <mxPoint x="7390" y="2301.62" as="targetPoint" />
            <Array as="points">
              <mxPoint x="7310" y="2301.46" />
            </Array>
          </mxGeometry>
        </mxCell>
        <mxCell id="aVHQifymBFc_l4_SO7kh-662" style="edgeStyle=orthogonalEdgeStyle;rounded=0;orthogonalLoop=1;jettySize=auto;html=1;entryX=0.994;entryY=0.556;entryDx=0;entryDy=0;entryPerimeter=0;" parent="1" source="aVHQifymBFc_l4_SO7kh-663" target="aVHQifymBFc_l4_SO7kh-664" edge="1">
          <mxGeometry relative="1" as="geometry">
            <Array as="points">
              <mxPoint x="7360" y="2452" />
            </Array>
          </mxGeometry>
        </mxCell>
        <mxCell id="aVHQifymBFc_l4_SO7kh-701" style="edgeStyle=orthogonalEdgeStyle;rounded=0;orthogonalLoop=1;jettySize=auto;html=1;entryX=1;entryY=0.5;entryDx=0;entryDy=0;" parent="1" source="aVHQifymBFc_l4_SO7kh-663" target="aVHQifymBFc_l4_SO7kh-689" edge="1">
          <mxGeometry relative="1" as="geometry">
            <Array as="points">
              <mxPoint x="7350" y="2710" />
              <mxPoint x="6620" y="2710" />
              <mxPoint x="6620" y="2153" />
            </Array>
          </mxGeometry>
        </mxCell>
        <mxCell id="aVHQifymBFc_l4_SO7kh-663" value="EMISION" style="text;html=1;align=center;verticalAlign=middle;resizable=0;points=[];autosize=1;strokeColor=none;fillColor=none;" parent="1" vertex="1">
          <mxGeometry x="7315" y="2280" width="70" height="30" as="geometry" />
        </mxCell>
        <mxCell id="aVHQifymBFc_l4_SO7kh-664" value="Ver Emisiones" style="ellipse;whiteSpace=wrap;html=1;aspect=fixed;" parent="1" vertex="1">
          <mxGeometry x="7095" y="2380" width="130" height="130" as="geometry" />
        </mxCell>
        <mxCell id="aVHQifymBFc_l4_SO7kh-667" value="" style="endArrow=none;html=1;rounded=0;" parent="1" edge="1">
          <mxGeometry width="50" height="50" relative="1" as="geometry">
            <mxPoint x="7720" y="2290" as="sourcePoint" />
            <mxPoint x="7800" y="2290.16" as="targetPoint" />
            <Array as="points">
              <mxPoint x="7720" y="2290" />
            </Array>
          </mxGeometry>
        </mxCell>
        <mxCell id="aVHQifymBFc_l4_SO7kh-668" value="" style="endArrow=none;html=1;rounded=0;" parent="1" edge="1">
          <mxGeometry width="50" height="50" relative="1" as="geometry">
            <mxPoint x="7720" y="2320" as="sourcePoint" />
            <mxPoint x="7800" y="2320.16" as="targetPoint" />
            <Array as="points">
              <mxPoint x="7720" y="2320" />
            </Array>
          </mxGeometry>
        </mxCell>
        <mxCell id="aVHQifymBFc_l4_SO7kh-669" style="edgeStyle=orthogonalEdgeStyle;rounded=0;orthogonalLoop=1;jettySize=auto;html=1;entryX=1;entryY=0;entryDx=0;entryDy=0;" parent="1" source="aVHQifymBFc_l4_SO7kh-670" target="aVHQifymBFc_l4_SO7kh-641" edge="1">
          <mxGeometry relative="1" as="geometry">
            <Array as="points">
              <mxPoint x="7760" y="2270" />
              <mxPoint x="7631" y="2270" />
            </Array>
          </mxGeometry>
        </mxCell>
        <mxCell id="aVHQifymBFc_l4_SO7kh-670" value="SEGMENTOS" style="text;html=1;align=center;verticalAlign=middle;resizable=0;points=[];autosize=1;strokeColor=none;fillColor=none;" parent="1" vertex="1">
          <mxGeometry x="7710" y="2290" width="100" height="30" as="geometry" />
        </mxCell>
        <mxCell id="aVHQifymBFc_l4_SO7kh-673" style="edgeStyle=orthogonalEdgeStyle;rounded=0;orthogonalLoop=1;jettySize=auto;html=1;exitX=0.5;exitY=1;exitDx=0;exitDy=0;" parent="1" source="aVHQifymBFc_l4_SO7kh-580" target="aVHQifymBFc_l4_SO7kh-599" edge="1">
          <mxGeometry relative="1" as="geometry">
            <mxPoint x="7089.999999999942" y="1865" as="sourcePoint" />
          </mxGeometry>
        </mxCell>
        <mxCell id="aVHQifymBFc_l4_SO7kh-674" style="edgeStyle=orthogonalEdgeStyle;rounded=0;orthogonalLoop=1;jettySize=auto;html=1;exitX=0.5;exitY=1;exitDx=0;exitDy=0;entryX=0.5;entryY=0;entryDx=0;entryDy=0;" parent="1" source="aVHQifymBFc_l4_SO7kh-580" target="aVHQifymBFc_l4_SO7kh-603" edge="1">
          <mxGeometry relative="1" as="geometry">
            <mxPoint x="7155" y="1930" as="sourcePoint" />
          </mxGeometry>
        </mxCell>
        <mxCell id="aVHQifymBFc_l4_SO7kh-675" value="" style="endArrow=none;html=1;rounded=0;" parent="1" edge="1">
          <mxGeometry width="50" height="50" relative="1" as="geometry">
            <mxPoint x="8010" y="1660" as="sourcePoint" />
            <mxPoint x="8090" y="1660.1599999999999" as="targetPoint" />
            <Array as="points">
              <mxPoint x="8010" y="1660" />
            </Array>
          </mxGeometry>
        </mxCell>
        <mxCell id="aVHQifymBFc_l4_SO7kh-676" value="" style="endArrow=none;html=1;rounded=0;" parent="1" edge="1">
          <mxGeometry width="50" height="50" relative="1" as="geometry">
            <mxPoint x="8010" y="1690" as="sourcePoint" />
            <mxPoint x="8090" y="1690.1599999999999" as="targetPoint" />
            <Array as="points">
              <mxPoint x="8010" y="1690" />
            </Array>
          </mxGeometry>
        </mxCell>
        <mxCell id="wUyjelmsx-gmg9dhheAU-13" style="edgeStyle=orthogonalEdgeStyle;rounded=0;orthogonalLoop=1;jettySize=auto;html=1;entryX=1;entryY=0;entryDx=0;entryDy=0;" parent="1" source="aVHQifymBFc_l4_SO7kh-677" target="aVHQifymBFc_l4_SO7kh-580" edge="1">
          <mxGeometry relative="1" as="geometry">
            <Array as="points">
              <mxPoint x="8050" y="1489" />
            </Array>
          </mxGeometry>
        </mxCell>
        <mxCell id="aVHQifymBFc_l4_SO7kh-677" value="ROLES" style="text;html=1;align=center;verticalAlign=middle;resizable=0;points=[];autosize=1;strokeColor=none;fillColor=none;" parent="1" vertex="1">
          <mxGeometry x="8020" y="1660" width="60" height="30" as="geometry" />
        </mxCell>
        <mxCell id="aVHQifymBFc_l4_SO7kh-698" style="edgeStyle=orthogonalEdgeStyle;rounded=0;orthogonalLoop=1;jettySize=auto;html=1;exitX=0.5;exitY=1;exitDx=0;exitDy=0;entryX=0.5;entryY=0;entryDx=0;entryDy=0;" parent="1" source="aVHQifymBFc_l4_SO7kh-687" target="aVHQifymBFc_l4_SO7kh-689" edge="1">
          <mxGeometry relative="1" as="geometry" />
        </mxCell>
        <mxCell id="pgeDyyS8oXksHp_Y4zWR-31" style="edgeStyle=orthogonalEdgeStyle;rounded=0;orthogonalLoop=1;jettySize=auto;html=1;exitX=0;exitY=0.5;exitDx=0;exitDy=0;" parent="1" source="aVHQifymBFc_l4_SO7kh-687" edge="1">
          <mxGeometry relative="1" as="geometry">
            <mxPoint x="6345" y="2093" as="targetPoint" />
          </mxGeometry>
        </mxCell>
        <mxCell id="aVHQifymBFc_l4_SO7kh-687" value="Espectador" style="rounded=0;whiteSpace=wrap;html=1;" parent="1" vertex="1">
          <mxGeometry x="6435" y="1980" width="120" height="60" as="geometry" />
        </mxCell>
        <mxCell id="aVHQifymBFc_l4_SO7kh-689" value="ver Programa en vivo" style="ellipse;whiteSpace=wrap;html=1;aspect=fixed;" parent="1" vertex="1">
          <mxGeometry x="6430" y="2088" width="130" height="130" as="geometry" />
        </mxCell>
        <mxCell id="aVHQifymBFc_l4_SO7kh-692" value="Valorar" style="ellipse;whiteSpace=wrap;html=1;aspect=fixed;" parent="1" vertex="1">
          <mxGeometry x="6430" y="2290" width="130" height="130" as="geometry" />
        </mxCell>
        <mxCell id="aVHQifymBFc_l4_SO7kh-700" style="edgeStyle=orthogonalEdgeStyle;rounded=0;orthogonalLoop=1;jettySize=auto;html=1;entryX=0.5;entryY=0.042;entryDx=0;entryDy=0;entryPerimeter=0;" parent="1" source="aVHQifymBFc_l4_SO7kh-625" target="aVHQifymBFc_l4_SO7kh-663" edge="1">
          <mxGeometry relative="1" as="geometry">
            <Array as="points">
              <mxPoint x="7350" y="2160" />
              <mxPoint x="7350" y="2160" />
            </Array>
          </mxGeometry>
        </mxCell>
        <mxCell id="aVHQifymBFc_l4_SO7kh-702" style="edgeStyle=orthogonalEdgeStyle;rounded=0;orthogonalLoop=1;jettySize=auto;html=1;entryX=0.694;entryY=1;entryDx=0;entryDy=0;entryPerimeter=0;" parent="1" source="aVHQifymBFc_l4_SO7kh-692" target="aVHQifymBFc_l4_SO7kh-651" edge="1">
          <mxGeometry relative="1" as="geometry">
            <Array as="points">
              <mxPoint x="6490" y="3060" />
              <mxPoint x="7763" y="3060" />
            </Array>
          </mxGeometry>
        </mxCell>
        <mxCell id="aVHQifymBFc_l4_SO7kh-817" style="edgeStyle=orthogonalEdgeStyle;rounded=0;orthogonalLoop=1;jettySize=auto;html=1;entryX=0;entryY=0.5;entryDx=0;entryDy=0;" parent="1" source="aVHQifymBFc_l4_SO7kh-818" target="wUyjelmsx-gmg9dhheAU-16" edge="1">
          <mxGeometry relative="1" as="geometry" />
        </mxCell>
        <mxCell id="aVHQifymBFc_l4_SO7kh-818" value="Empleado" style="rounded=0;whiteSpace=wrap;html=1;" parent="1" vertex="1">
          <mxGeometry x="9020" y="1540" width="120" height="60" as="geometry" />
        </mxCell>
        <mxCell id="aVHQifymBFc_l4_SO7kh-820" value="Iniciar Sesion" style="ellipse;whiteSpace=wrap;html=1;aspect=fixed;" parent="1" vertex="1">
          <mxGeometry x="9210" y="1505" width="130" height="130" as="geometry" />
        </mxCell>
        <mxCell id="aVHQifymBFc_l4_SO7kh-984" style="edgeStyle=orthogonalEdgeStyle;rounded=0;orthogonalLoop=1;jettySize=auto;html=1;exitX=1;exitY=1;exitDx=0;exitDy=0;entryX=1;entryY=0.5;entryDx=0;entryDy=0;" parent="1" source="aVHQifymBFc_l4_SO7kh-822" target="aVHQifymBFc_l4_SO7kh-982" edge="1">
          <mxGeometry relative="1" as="geometry">
            <Array as="points">
              <mxPoint x="8980" y="2246" />
              <mxPoint x="8980" y="2495" />
            </Array>
          </mxGeometry>
        </mxCell>
        <mxCell id="aVHQifymBFc_l4_SO7kh-822" value="Ver contenido" style="ellipse;whiteSpace=wrap;html=1;aspect=fixed;" parent="1" vertex="1">
          <mxGeometry x="8830" y="2135" width="130" height="130" as="geometry" />
        </mxCell>
        <mxCell id="aVHQifymBFc_l4_SO7kh-823" value="Ver parrilla semanal" style="ellipse;whiteSpace=wrap;html=1;aspect=fixed;" parent="1" vertex="1">
          <mxGeometry x="8830" y="3030" width="130" height="130" as="geometry" />
        </mxCell>
        <mxCell id="aVHQifymBFc_l4_SO7kh-825" style="edgeStyle=orthogonalEdgeStyle;rounded=0;orthogonalLoop=1;jettySize=auto;html=1;exitX=0;exitY=0.5;exitDx=0;exitDy=0;entryX=1;entryY=0.474;entryDx=0;entryDy=0;entryPerimeter=0;" parent="1" source="aVHQifymBFc_l4_SO7kh-826" target="aVHQifymBFc_l4_SO7kh-860" edge="1">
          <mxGeometry relative="1" as="geometry" />
        </mxCell>
        <mxCell id="aVHQifymBFc_l4_SO7kh-826" value="Mover programa&amp;nbsp;" style="ellipse;whiteSpace=wrap;html=1;aspect=fixed;" parent="1" vertex="1">
          <mxGeometry x="9210" y="2123" width="130" height="130" as="geometry" />
        </mxCell>
        <mxCell id="aVHQifymBFc_l4_SO7kh-827" style="edgeStyle=orthogonalEdgeStyle;rounded=0;orthogonalLoop=1;jettySize=auto;html=1;exitX=0.5;exitY=1;exitDx=0;exitDy=0;" parent="1" source="aVHQifymBFc_l4_SO7kh-820" target="aVHQifymBFc_l4_SO7kh-843" edge="1">
          <mxGeometry relative="1" as="geometry">
            <mxPoint x="9340" y="1900" as="sourcePoint" />
          </mxGeometry>
        </mxCell>
        <mxCell id="aVHQifymBFc_l4_SO7kh-829" value="" style="endArrow=none;html=1;rounded=0;" parent="1" edge="1">
          <mxGeometry width="50" height="50" relative="1" as="geometry">
            <mxPoint x="9505" y="1699.8400000000001" as="sourcePoint" />
            <mxPoint x="9585" y="1700" as="targetPoint" />
            <Array as="points">
              <mxPoint x="9505" y="1699.8400000000001" />
            </Array>
          </mxGeometry>
        </mxCell>
        <mxCell id="aVHQifymBFc_l4_SO7kh-830" value="" style="endArrow=none;html=1;rounded=0;" parent="1" edge="1">
          <mxGeometry width="50" height="50" relative="1" as="geometry">
            <mxPoint x="9505" y="1720" as="sourcePoint" />
            <mxPoint x="9585" y="1720.1599999999999" as="targetPoint" />
            <Array as="points">
              <mxPoint x="9505" y="1720" />
            </Array>
          </mxGeometry>
        </mxCell>
        <mxCell id="aVHQifymBFc_l4_SO7kh-832" style="edgeStyle=orthogonalEdgeStyle;rounded=0;orthogonalLoop=1;jettySize=auto;html=1;exitX=0.5;exitY=1;exitDx=0;exitDy=0;entryX=0.5;entryY=0;entryDx=0;entryDy=0;" parent="1" source="aVHQifymBFc_l4_SO7kh-837" target="aVHQifymBFc_l4_SO7kh-822" edge="1">
          <mxGeometry relative="1" as="geometry" />
        </mxCell>
        <mxCell id="aVHQifymBFc_l4_SO7kh-985" style="edgeStyle=orthogonalEdgeStyle;rounded=0;orthogonalLoop=1;jettySize=auto;html=1;exitX=0;exitY=0.5;exitDx=0;exitDy=0;entryX=0;entryY=0.5;entryDx=0;entryDy=0;" parent="1" source="aVHQifymBFc_l4_SO7kh-837" target="aVHQifymBFc_l4_SO7kh-822" edge="1">
          <mxGeometry relative="1" as="geometry" />
        </mxCell>
        <mxCell id="aVHQifymBFc_l4_SO7kh-986" style="edgeStyle=orthogonalEdgeStyle;rounded=0;orthogonalLoop=1;jettySize=auto;html=1;exitX=0;exitY=0.5;exitDx=0;exitDy=0;entryX=0;entryY=0.5;entryDx=0;entryDy=0;" parent="1" source="aVHQifymBFc_l4_SO7kh-837" target="aVHQifymBFc_l4_SO7kh-844" edge="1">
          <mxGeometry relative="1" as="geometry" />
        </mxCell>
        <mxCell id="aVHQifymBFc_l4_SO7kh-1000" style="edgeStyle=orthogonalEdgeStyle;rounded=0;orthogonalLoop=1;jettySize=auto;html=1;exitX=0;exitY=0.5;exitDx=0;exitDy=0;entryX=0;entryY=0.5;entryDx=0;entryDy=0;" parent="1" source="aVHQifymBFc_l4_SO7kh-837" target="aVHQifymBFc_l4_SO7kh-990" edge="1">
          <mxGeometry relative="1" as="geometry" />
        </mxCell>
        <mxCell id="aVHQifymBFc_l4_SO7kh-1001" style="edgeStyle=orthogonalEdgeStyle;rounded=0;orthogonalLoop=1;jettySize=auto;html=1;exitX=0;exitY=0.5;exitDx=0;exitDy=0;entryX=0;entryY=0.5;entryDx=0;entryDy=0;" parent="1" source="aVHQifymBFc_l4_SO7kh-837" target="aVHQifymBFc_l4_SO7kh-991" edge="1">
          <mxGeometry relative="1" as="geometry" />
        </mxCell>
        <mxCell id="aVHQifymBFc_l4_SO7kh-837" value="Productor/Editor" style="rounded=0;whiteSpace=wrap;html=1;" parent="1" vertex="1">
          <mxGeometry x="8845" y="2015" width="120" height="60" as="geometry" />
        </mxCell>
        <mxCell id="aVHQifymBFc_l4_SO7kh-838" style="edgeStyle=orthogonalEdgeStyle;rounded=0;orthogonalLoop=1;jettySize=auto;html=1;exitX=0.5;exitY=1;exitDx=0;exitDy=0;entryX=0.5;entryY=0;entryDx=0;entryDy=0;" parent="1" source="aVHQifymBFc_l4_SO7kh-841" target="aVHQifymBFc_l4_SO7kh-826" edge="1">
          <mxGeometry relative="1" as="geometry" />
        </mxCell>
        <mxCell id="aVHQifymBFc_l4_SO7kh-839" style="edgeStyle=orthogonalEdgeStyle;rounded=0;orthogonalLoop=1;jettySize=auto;html=1;exitX=0;exitY=0.5;exitDx=0;exitDy=0;entryX=0;entryY=0.5;entryDx=0;entryDy=0;" parent="1" source="aVHQifymBFc_l4_SO7kh-841" target="aVHQifymBFc_l4_SO7kh-867" edge="1">
          <mxGeometry relative="1" as="geometry" />
        </mxCell>
        <mxCell id="aVHQifymBFc_l4_SO7kh-840" style="edgeStyle=orthogonalEdgeStyle;rounded=0;orthogonalLoop=1;jettySize=auto;html=1;exitX=0;exitY=0.5;exitDx=0;exitDy=0;entryX=0;entryY=0.5;entryDx=0;entryDy=0;" parent="1" source="aVHQifymBFc_l4_SO7kh-841" target="aVHQifymBFc_l4_SO7kh-904" edge="1">
          <mxGeometry relative="1" as="geometry" />
        </mxCell>
        <mxCell id="aVHQifymBFc_l4_SO7kh-841" value="Programador" style="rounded=0;whiteSpace=wrap;html=1;" parent="1" vertex="1">
          <mxGeometry x="9215" y="2015" width="120" height="60" as="geometry" />
        </mxCell>
        <mxCell id="aVHQifymBFc_l4_SO7kh-842" style="edgeStyle=orthogonalEdgeStyle;rounded=0;orthogonalLoop=1;jettySize=auto;html=1;exitX=0.5;exitY=1;exitDx=0;exitDy=0;" parent="1" source="aVHQifymBFc_l4_SO7kh-843" target="aVHQifymBFc_l4_SO7kh-875" edge="1">
          <mxGeometry relative="1" as="geometry" />
        </mxCell>
        <mxCell id="aVHQifymBFc_l4_SO7kh-843" value="Administrador" style="rounded=0;whiteSpace=wrap;html=1;" parent="1" vertex="1">
          <mxGeometry x="9640" y="2015" width="120" height="60" as="geometry" />
        </mxCell>
        <mxCell id="aVHQifymBFc_l4_SO7kh-844" value="AÃ±adir contenido" style="ellipse;whiteSpace=wrap;html=1;aspect=fixed;" parent="1" vertex="1">
          <mxGeometry x="8830" y="2285" width="130" height="130" as="geometry" />
        </mxCell>
        <mxCell id="aVHQifymBFc_l4_SO7kh-847" value="2" style="text;html=1;align=center;verticalAlign=middle;resizable=0;points=[];autosize=1;strokeColor=none;fillColor=none;" parent="1" vertex="1">
          <mxGeometry x="8880" y="3040" width="30" height="30" as="geometry" />
        </mxCell>
        <mxCell id="aVHQifymBFc_l4_SO7kh-848" value="" style="endArrow=none;html=1;rounded=0;" parent="1" edge="1">
          <mxGeometry width="50" height="50" relative="1" as="geometry">
            <mxPoint x="9020" y="2174.3" as="sourcePoint" />
            <mxPoint x="9100" y="2174.46" as="targetPoint" />
            <Array as="points">
              <mxPoint x="9020" y="2174.3" />
            </Array>
          </mxGeometry>
        </mxCell>
        <mxCell id="aVHQifymBFc_l4_SO7kh-849" value="" style="endArrow=none;html=1;rounded=0;" parent="1" edge="1">
          <mxGeometry width="50" height="50" relative="1" as="geometry">
            <mxPoint x="9020" y="2194.46" as="sourcePoint" />
            <mxPoint x="9100" y="2194.62" as="targetPoint" />
            <Array as="points">
              <mxPoint x="9020" y="2194.46" />
            </Array>
          </mxGeometry>
        </mxCell>
        <mxCell id="pgeDyyS8oXksHp_Y4zWR-19" style="edgeStyle=orthogonalEdgeStyle;rounded=0;orthogonalLoop=1;jettySize=auto;html=1;entryX=0;entryY=0.5;entryDx=0;entryDy=0;" parent="1" source="aVHQifymBFc_l4_SO7kh-851" target="pgeDyyS8oXksHp_Y4zWR-16" edge="1">
          <mxGeometry relative="1" as="geometry">
            <Array as="points">
              <mxPoint x="9060" y="2110" />
              <mxPoint x="8380" y="2110" />
              <mxPoint x="8380" y="2195" />
            </Array>
          </mxGeometry>
        </mxCell>
        <mxCell id="aVHQifymBFc_l4_SO7kh-851" value="CONTENIDOS" style="text;html=1;align=center;verticalAlign=middle;resizable=0;points=[];autosize=1;strokeColor=none;fillColor=none;" parent="1" vertex="1">
          <mxGeometry x="9010" y="2173" width="100" height="30" as="geometry" />
        </mxCell>
        <mxCell id="aVHQifymBFc_l4_SO7kh-857" value="" style="endArrow=none;html=1;rounded=0;" parent="1" edge="1">
          <mxGeometry width="50" height="50" relative="1" as="geometry">
            <mxPoint x="9025" y="3080" as="sourcePoint" />
            <mxPoint x="9095" y="3080" as="targetPoint" />
          </mxGeometry>
        </mxCell>
        <mxCell id="aVHQifymBFc_l4_SO7kh-858" value="" style="endArrow=none;html=1;rounded=0;" parent="1" edge="1">
          <mxGeometry width="50" height="50" relative="1" as="geometry">
            <mxPoint x="9025" y="3100" as="sourcePoint" />
            <mxPoint x="9095" y="3100" as="targetPoint" />
          </mxGeometry>
        </mxCell>
        <mxCell id="aVHQifymBFc_l4_SO7kh-859" style="edgeStyle=orthogonalEdgeStyle;rounded=0;orthogonalLoop=1;jettySize=auto;html=1;entryX=1;entryY=0.5;entryDx=0;entryDy=0;" parent="1" source="aVHQifymBFc_l4_SO7kh-860" target="aVHQifymBFc_l4_SO7kh-823" edge="1">
          <mxGeometry relative="1" as="geometry" />
        </mxCell>
        <mxCell id="aVHQifymBFc_l4_SO7kh-860" value="PARRILLA" style="text;html=1;align=center;verticalAlign=middle;resizable=0;points=[];autosize=1;strokeColor=none;fillColor=none;" parent="1" vertex="1">
          <mxGeometry x="9020" y="3080" width="80" height="30" as="geometry" />
        </mxCell>
        <mxCell id="aVHQifymBFc_l4_SO7kh-861" value="" style="endArrow=none;html=1;rounded=0;" parent="1" edge="1">
          <mxGeometry width="50" height="50" relative="1" as="geometry">
            <mxPoint x="9390" y="2144.3" as="sourcePoint" />
            <mxPoint x="9470" y="2144.46" as="targetPoint" />
            <Array as="points">
              <mxPoint x="9390" y="2144.3" />
            </Array>
          </mxGeometry>
        </mxCell>
        <mxCell id="aVHQifymBFc_l4_SO7kh-862" value="" style="endArrow=none;html=1;rounded=0;" parent="1" edge="1">
          <mxGeometry width="50" height="50" relative="1" as="geometry">
            <mxPoint x="9390" y="2164.46" as="sourcePoint" />
            <mxPoint x="9470" y="2164.62" as="targetPoint" />
            <Array as="points">
              <mxPoint x="9390" y="2164.46" />
            </Array>
          </mxGeometry>
        </mxCell>
        <mxCell id="aVHQifymBFc_l4_SO7kh-863" style="edgeStyle=orthogonalEdgeStyle;rounded=0;orthogonalLoop=1;jettySize=auto;html=1;" parent="1" source="aVHQifymBFc_l4_SO7kh-865" target="aVHQifymBFc_l4_SO7kh-826" edge="1">
          <mxGeometry relative="1" as="geometry" />
        </mxCell>
        <mxCell id="aVHQifymBFc_l4_SO7kh-865" value="PROGRAMA" style="text;html=1;align=center;verticalAlign=middle;resizable=0;points=[];autosize=1;strokeColor=none;fillColor=none;" parent="1" vertex="1">
          <mxGeometry x="9385" y="2143" width="90" height="30" as="geometry" />
        </mxCell>
        <mxCell id="aVHQifymBFc_l4_SO7kh-866" style="edgeStyle=orthogonalEdgeStyle;rounded=0;orthogonalLoop=1;jettySize=auto;html=1;" parent="1" source="aVHQifymBFc_l4_SO7kh-867" target="aVHQifymBFc_l4_SO7kh-903" edge="1">
          <mxGeometry relative="1" as="geometry" />
        </mxCell>
        <mxCell id="aVHQifymBFc_l4_SO7kh-867" value="Programar emision" style="ellipse;whiteSpace=wrap;html=1;aspect=fixed;" parent="1" vertex="1">
          <mxGeometry x="9210" y="2265" width="130" height="130" as="geometry" />
        </mxCell>
        <mxCell id="aVHQifymBFc_l4_SO7kh-868" style="edgeStyle=orthogonalEdgeStyle;rounded=0;orthogonalLoop=1;jettySize=auto;html=1;exitX=0;exitY=0.5;exitDx=0;exitDy=0;entryX=0;entryY=0.5;entryDx=0;entryDy=0;" parent="1" source="aVHQifymBFc_l4_SO7kh-875" target="aVHQifymBFc_l4_SO7kh-880" edge="1">
          <mxGeometry relative="1" as="geometry" />
        </mxCell>
        <mxCell id="aVHQifymBFc_l4_SO7kh-936" style="edgeStyle=orthogonalEdgeStyle;rounded=0;orthogonalLoop=1;jettySize=auto;html=1;exitX=0;exitY=0.5;exitDx=0;exitDy=0;entryX=0;entryY=0.5;entryDx=0;entryDy=0;" parent="1" source="aVHQifymBFc_l4_SO7kh-875" target="aVHQifymBFc_l4_SO7kh-931" edge="1">
          <mxGeometry relative="1" as="geometry" />
        </mxCell>
        <mxCell id="aVHQifymBFc_l4_SO7kh-945" style="edgeStyle=orthogonalEdgeStyle;rounded=0;orthogonalLoop=1;jettySize=auto;html=1;exitX=0;exitY=0.5;exitDx=0;exitDy=0;entryX=0;entryY=0.5;entryDx=0;entryDy=0;" parent="1" source="aVHQifymBFc_l4_SO7kh-875" target="aVHQifymBFc_l4_SO7kh-937" edge="1">
          <mxGeometry relative="1" as="geometry" />
        </mxCell>
        <mxCell id="aVHQifymBFc_l4_SO7kh-946" style="edgeStyle=orthogonalEdgeStyle;rounded=0;orthogonalLoop=1;jettySize=auto;html=1;exitX=0;exitY=0.5;exitDx=0;exitDy=0;entryX=0;entryY=0.5;entryDx=0;entryDy=0;" parent="1" source="aVHQifymBFc_l4_SO7kh-875" target="aVHQifymBFc_l4_SO7kh-938" edge="1">
          <mxGeometry relative="1" as="geometry" />
        </mxCell>
        <mxCell id="aVHQifymBFc_l4_SO7kh-951" style="edgeStyle=orthogonalEdgeStyle;rounded=0;orthogonalLoop=1;jettySize=auto;html=1;exitX=0;exitY=0.5;exitDx=0;exitDy=0;entryX=0;entryY=0.5;entryDx=0;entryDy=0;" parent="1" source="aVHQifymBFc_l4_SO7kh-875" target="aVHQifymBFc_l4_SO7kh-948" edge="1">
          <mxGeometry relative="1" as="geometry" />
        </mxCell>
        <mxCell id="aVHQifymBFc_l4_SO7kh-952" style="edgeStyle=orthogonalEdgeStyle;rounded=0;orthogonalLoop=1;jettySize=auto;html=1;exitX=0;exitY=0.5;exitDx=0;exitDy=0;entryX=0;entryY=0.5;entryDx=0;entryDy=0;" parent="1" source="aVHQifymBFc_l4_SO7kh-875" target="aVHQifymBFc_l4_SO7kh-949" edge="1">
          <mxGeometry relative="1" as="geometry" />
        </mxCell>
        <mxCell id="aVHQifymBFc_l4_SO7kh-959" style="edgeStyle=orthogonalEdgeStyle;rounded=0;orthogonalLoop=1;jettySize=auto;html=1;exitX=0;exitY=0.5;exitDx=0;exitDy=0;entryX=0;entryY=0.5;entryDx=0;entryDy=0;" parent="1" source="aVHQifymBFc_l4_SO7kh-875" target="aVHQifymBFc_l4_SO7kh-958" edge="1">
          <mxGeometry relative="1" as="geometry" />
        </mxCell>
        <mxCell id="aVHQifymBFc_l4_SO7kh-974" style="edgeStyle=orthogonalEdgeStyle;rounded=0;orthogonalLoop=1;jettySize=auto;html=1;exitX=0;exitY=0.5;exitDx=0;exitDy=0;entryX=0;entryY=0.5;entryDx=0;entryDy=0;" parent="1" source="aVHQifymBFc_l4_SO7kh-875" target="aVHQifymBFc_l4_SO7kh-965" edge="1">
          <mxGeometry relative="1" as="geometry" />
        </mxCell>
        <mxCell id="aVHQifymBFc_l4_SO7kh-975" style="edgeStyle=orthogonalEdgeStyle;rounded=0;orthogonalLoop=1;jettySize=auto;html=1;exitX=0;exitY=0.5;exitDx=0;exitDy=0;entryX=0;entryY=0.5;entryDx=0;entryDy=0;" parent="1" source="aVHQifymBFc_l4_SO7kh-875" target="aVHQifymBFc_l4_SO7kh-966" edge="1">
          <mxGeometry relative="1" as="geometry" />
        </mxCell>
        <mxCell id="aVHQifymBFc_l4_SO7kh-875" value="Ingresar Menu ABM" style="ellipse;whiteSpace=wrap;html=1;aspect=fixed;" parent="1" vertex="1">
          <mxGeometry x="9635" y="2143" width="130" height="130" as="geometry" />
        </mxCell>
        <mxCell id="aVHQifymBFc_l4_SO7kh-934" style="edgeStyle=orthogonalEdgeStyle;rounded=0;orthogonalLoop=1;jettySize=auto;html=1;exitX=0;exitY=1;exitDx=0;exitDy=0;entryX=0;entryY=0.5;entryDx=0;entryDy=0;" parent="1" source="aVHQifymBFc_l4_SO7kh-880" target="aVHQifymBFc_l4_SO7kh-933" edge="1">
          <mxGeometry relative="1" as="geometry">
            <Array as="points">
              <mxPoint x="9590" y="2406" />
              <mxPoint x="9590" y="2665" />
            </Array>
          </mxGeometry>
        </mxCell>
        <mxCell id="aVHQifymBFc_l4_SO7kh-880" value="Ver Segmentos" style="ellipse;whiteSpace=wrap;html=1;aspect=fixed;" parent="1" vertex="1">
          <mxGeometry x="9640" y="2295" width="130" height="130" as="geometry" />
        </mxCell>
        <mxCell id="aVHQifymBFc_l4_SO7kh-886" value="" style="endArrow=none;html=1;rounded=0;" parent="1" edge="1">
          <mxGeometry width="50" height="50" relative="1" as="geometry">
            <mxPoint x="9375" y="4210" as="sourcePoint" />
            <mxPoint x="9455" y="4210.16" as="targetPoint" />
            <Array as="points">
              <mxPoint x="9375" y="4210" />
            </Array>
          </mxGeometry>
        </mxCell>
        <mxCell id="aVHQifymBFc_l4_SO7kh-887" value="" style="endArrow=none;html=1;rounded=0;" parent="1" edge="1">
          <mxGeometry width="50" height="50" relative="1" as="geometry">
            <mxPoint x="9375" y="4240" as="sourcePoint" />
            <mxPoint x="9455" y="4240.16" as="targetPoint" />
            <Array as="points">
              <mxPoint x="9375" y="4240" />
            </Array>
          </mxGeometry>
        </mxCell>
        <mxCell id="aVHQifymBFc_l4_SO7kh-960" style="edgeStyle=orthogonalEdgeStyle;rounded=0;orthogonalLoop=1;jettySize=auto;html=1;entryX=0;entryY=1;entryDx=0;entryDy=0;" parent="1" source="aVHQifymBFc_l4_SO7kh-889" target="aVHQifymBFc_l4_SO7kh-958" edge="1">
          <mxGeometry relative="1" as="geometry">
            <Array as="points">
              <mxPoint x="9550" y="4225" />
              <mxPoint x="9550" y="4279" />
            </Array>
          </mxGeometry>
        </mxCell>
        <mxCell id="aVHQifymBFc_l4_SO7kh-889" value="REPORTES" style="text;html=1;align=center;verticalAlign=middle;resizable=0;points=[];autosize=1;strokeColor=none;fillColor=none;" parent="1" vertex="1">
          <mxGeometry x="9370" y="4210" width="90" height="30" as="geometry" />
        </mxCell>
        <mxCell id="aVHQifymBFc_l4_SO7kh-890" value="" style="endArrow=none;html=1;rounded=0;" parent="1" target="aVHQifymBFc_l4_SO7kh-892" edge="1">
          <mxGeometry width="50" height="50" relative="1" as="geometry">
            <mxPoint x="9500" y="1729.92" as="sourcePoint" />
            <mxPoint x="9580" y="1730.08" as="targetPoint" />
            <Array as="points" />
          </mxGeometry>
        </mxCell>
        <mxCell id="aVHQifymBFc_l4_SO7kh-972" style="edgeStyle=orthogonalEdgeStyle;rounded=0;orthogonalLoop=1;jettySize=auto;html=1;entryX=1;entryY=0;entryDx=0;entryDy=0;" parent="1" source="aVHQifymBFc_l4_SO7kh-892" target="aVHQifymBFc_l4_SO7kh-965" edge="1">
          <mxGeometry relative="1" as="geometry">
            <Array as="points">
              <mxPoint x="9950" y="1715" />
              <mxPoint x="9950" y="3239" />
            </Array>
          </mxGeometry>
        </mxCell>
        <mxCell id="wUyjelmsx-gmg9dhheAU-19" style="edgeStyle=orthogonalEdgeStyle;rounded=0;orthogonalLoop=1;jettySize=auto;html=1;entryX=1;entryY=0.5;entryDx=0;entryDy=0;" parent="1" source="aVHQifymBFc_l4_SO7kh-892" target="aVHQifymBFc_l4_SO7kh-820" edge="1">
          <mxGeometry relative="1" as="geometry" />
        </mxCell>
        <mxCell id="aVHQifymBFc_l4_SO7kh-892" value="USUARIOS" style="text;html=1;align=center;verticalAlign=middle;resizable=0;points=[];autosize=1;strokeColor=none;fillColor=none;" parent="1" vertex="1">
          <mxGeometry x="9500" y="1700" width="90" height="30" as="geometry" />
        </mxCell>
        <mxCell id="aVHQifymBFc_l4_SO7kh-895" value="" style="endArrow=none;html=1;rounded=0;" parent="1" edge="1">
          <mxGeometry width="50" height="50" relative="1" as="geometry">
            <mxPoint x="9450" y="3908" as="sourcePoint" />
            <mxPoint x="9530" y="3908.16" as="targetPoint" />
            <Array as="points">
              <mxPoint x="9450" y="3908" />
            </Array>
          </mxGeometry>
        </mxCell>
        <mxCell id="aVHQifymBFc_l4_SO7kh-896" value="" style="endArrow=none;html=1;rounded=0;" parent="1" edge="1">
          <mxGeometry width="50" height="50" relative="1" as="geometry">
            <mxPoint x="9450" y="3938" as="sourcePoint" />
            <mxPoint x="9530" y="3938.16" as="targetPoint" />
            <Array as="points">
              <mxPoint x="9450" y="3938" />
            </Array>
          </mxGeometry>
        </mxCell>
        <mxCell id="aVHQifymBFc_l4_SO7kh-961" style="edgeStyle=orthogonalEdgeStyle;rounded=0;orthogonalLoop=1;jettySize=auto;html=1;entryX=0;entryY=0;entryDx=0;entryDy=0;" parent="1" source="aVHQifymBFc_l4_SO7kh-898" target="aVHQifymBFc_l4_SO7kh-948" edge="1">
          <mxGeometry relative="1" as="geometry">
            <Array as="points">
              <mxPoint x="9490" y="3710" />
              <mxPoint x="9580" y="3710" />
            </Array>
          </mxGeometry>
        </mxCell>
        <mxCell id="aVHQifymBFc_l4_SO7kh-898" value="PLATAFORMAS" style="text;html=1;align=center;verticalAlign=middle;resizable=0;points=[];autosize=1;strokeColor=none;fillColor=none;" parent="1" vertex="1">
          <mxGeometry x="9435" y="3908" width="110" height="30" as="geometry" />
        </mxCell>
        <mxCell id="aVHQifymBFc_l4_SO7kh-899" value="" style="endArrow=none;html=1;rounded=0;" parent="1" edge="1">
          <mxGeometry width="50" height="50" relative="1" as="geometry">
            <mxPoint x="9430" y="2316.3" as="sourcePoint" />
            <mxPoint x="9510" y="2316.46" as="targetPoint" />
            <Array as="points">
              <mxPoint x="9430" y="2316.3" />
            </Array>
          </mxGeometry>
        </mxCell>
        <mxCell id="aVHQifymBFc_l4_SO7kh-900" value="" style="endArrow=none;html=1;rounded=0;" parent="1" edge="1">
          <mxGeometry width="50" height="50" relative="1" as="geometry">
            <mxPoint x="9430" y="2336.46" as="sourcePoint" />
            <mxPoint x="9510" y="2336.62" as="targetPoint" />
            <Array as="points">
              <mxPoint x="9430" y="2336.46" />
            </Array>
          </mxGeometry>
        </mxCell>
        <mxCell id="aVHQifymBFc_l4_SO7kh-901" style="edgeStyle=orthogonalEdgeStyle;rounded=0;orthogonalLoop=1;jettySize=auto;html=1;entryX=0.994;entryY=0.556;entryDx=0;entryDy=0;entryPerimeter=0;" parent="1" source="aVHQifymBFc_l4_SO7kh-903" target="aVHQifymBFc_l4_SO7kh-904" edge="1">
          <mxGeometry relative="1" as="geometry">
            <Array as="points">
              <mxPoint x="9480" y="2487" />
            </Array>
          </mxGeometry>
        </mxCell>
        <mxCell id="aVHQifymBFc_l4_SO7kh-902" style="edgeStyle=orthogonalEdgeStyle;rounded=0;orthogonalLoop=1;jettySize=auto;html=1;entryX=1;entryY=0.5;entryDx=0;entryDy=0;" parent="1" source="aVHQifymBFc_l4_SO7kh-903" target="aVHQifymBFc_l4_SO7kh-926" edge="1">
          <mxGeometry relative="1" as="geometry">
            <Array as="points">
              <mxPoint x="9470" y="3180" />
              <mxPoint x="8740" y="3180" />
              <mxPoint x="8740" y="2188" />
            </Array>
          </mxGeometry>
        </mxCell>
        <mxCell id="aVHQifymBFc_l4_SO7kh-903" value="EMISION" style="text;html=1;align=center;verticalAlign=middle;resizable=0;points=[];autosize=1;strokeColor=none;fillColor=none;" parent="1" vertex="1">
          <mxGeometry x="9435" y="2315" width="70" height="30" as="geometry" />
        </mxCell>
        <mxCell id="aVHQifymBFc_l4_SO7kh-904" value="Ver Emisiones" style="ellipse;whiteSpace=wrap;html=1;aspect=fixed;" parent="1" vertex="1">
          <mxGeometry x="9215" y="2415" width="130" height="130" as="geometry" />
        </mxCell>
        <mxCell id="aVHQifymBFc_l4_SO7kh-907" value="" style="endArrow=none;html=1;rounded=0;" parent="1" edge="1">
          <mxGeometry width="50" height="50" relative="1" as="geometry">
            <mxPoint x="9840" y="2325" as="sourcePoint" />
            <mxPoint x="9920" y="2325.16" as="targetPoint" />
            <Array as="points">
              <mxPoint x="9840" y="2325" />
            </Array>
          </mxGeometry>
        </mxCell>
        <mxCell id="aVHQifymBFc_l4_SO7kh-908" value="" style="endArrow=none;html=1;rounded=0;" parent="1" edge="1">
          <mxGeometry width="50" height="50" relative="1" as="geometry">
            <mxPoint x="9840" y="2355" as="sourcePoint" />
            <mxPoint x="9920" y="2355.16" as="targetPoint" />
            <Array as="points">
              <mxPoint x="9840" y="2355" />
            </Array>
          </mxGeometry>
        </mxCell>
        <mxCell id="aVHQifymBFc_l4_SO7kh-909" style="edgeStyle=orthogonalEdgeStyle;rounded=0;orthogonalLoop=1;jettySize=auto;html=1;entryX=1;entryY=0;entryDx=0;entryDy=0;" parent="1" source="aVHQifymBFc_l4_SO7kh-910" target="aVHQifymBFc_l4_SO7kh-880" edge="1">
          <mxGeometry relative="1" as="geometry">
            <Array as="points">
              <mxPoint x="9880" y="2305" />
              <mxPoint x="9751" y="2305" />
            </Array>
          </mxGeometry>
        </mxCell>
        <mxCell id="aVHQifymBFc_l4_SO7kh-910" value="SEGMENTOS" style="text;html=1;align=center;verticalAlign=middle;resizable=0;points=[];autosize=1;strokeColor=none;fillColor=none;" parent="1" vertex="1">
          <mxGeometry x="9830" y="2325" width="100" height="30" as="geometry" />
        </mxCell>
        <mxCell id="aVHQifymBFc_l4_SO7kh-912" style="edgeStyle=orthogonalEdgeStyle;rounded=0;orthogonalLoop=1;jettySize=auto;html=1;exitX=0.5;exitY=1;exitDx=0;exitDy=0;" parent="1" source="aVHQifymBFc_l4_SO7kh-820" target="aVHQifymBFc_l4_SO7kh-837" edge="1">
          <mxGeometry relative="1" as="geometry">
            <mxPoint x="9210.000000000056" y="1900" as="sourcePoint" />
          </mxGeometry>
        </mxCell>
        <mxCell id="aVHQifymBFc_l4_SO7kh-913" style="edgeStyle=orthogonalEdgeStyle;rounded=0;orthogonalLoop=1;jettySize=auto;html=1;exitX=0.5;exitY=1;exitDx=0;exitDy=0;entryX=0.5;entryY=0;entryDx=0;entryDy=0;" parent="1" source="aVHQifymBFc_l4_SO7kh-820" target="aVHQifymBFc_l4_SO7kh-841" edge="1">
          <mxGeometry relative="1" as="geometry">
            <mxPoint x="9275" y="1965" as="sourcePoint" />
          </mxGeometry>
        </mxCell>
        <mxCell id="aVHQifymBFc_l4_SO7kh-914" style="edgeStyle=orthogonalEdgeStyle;rounded=0;orthogonalLoop=1;jettySize=auto;html=1;exitX=0.5;exitY=1;exitDx=0;exitDy=0;entryX=0.5;entryY=0;entryDx=0;entryDy=0;" parent="1" source="aVHQifymBFc_l4_SO7kh-820" target="aVHQifymBFc_l4_SO7kh-924" edge="1">
          <mxGeometry relative="1" as="geometry">
            <mxPoint x="9229.038059222918" y="1854.0380592229171" as="sourcePoint" />
          </mxGeometry>
        </mxCell>
        <mxCell id="aVHQifymBFc_l4_SO7kh-916" value="" style="endArrow=none;html=1;rounded=0;" parent="1" edge="1">
          <mxGeometry width="50" height="50" relative="1" as="geometry">
            <mxPoint x="10130" y="1695" as="sourcePoint" />
            <mxPoint x="10210" y="1695.1599999999999" as="targetPoint" />
            <Array as="points">
              <mxPoint x="10130" y="1695" />
            </Array>
          </mxGeometry>
        </mxCell>
        <mxCell id="aVHQifymBFc_l4_SO7kh-917" value="" style="endArrow=none;html=1;rounded=0;" parent="1" edge="1">
          <mxGeometry width="50" height="50" relative="1" as="geometry">
            <mxPoint x="10130" y="1725" as="sourcePoint" />
            <mxPoint x="10210" y="1725.1599999999999" as="targetPoint" />
            <Array as="points">
              <mxPoint x="10130" y="1725" />
            </Array>
          </mxGeometry>
        </mxCell>
        <mxCell id="aVHQifymBFc_l4_SO7kh-973" style="edgeStyle=orthogonalEdgeStyle;rounded=0;orthogonalLoop=1;jettySize=auto;html=1;entryX=1;entryY=0.5;entryDx=0;entryDy=0;" parent="1" source="aVHQifymBFc_l4_SO7kh-919" target="aVHQifymBFc_l4_SO7kh-965" edge="1">
          <mxGeometry relative="1" as="geometry">
            <Array as="points">
              <mxPoint x="10000" y="1710" />
              <mxPoint x="10000" y="3285" />
            </Array>
          </mxGeometry>
        </mxCell>
        <mxCell id="wUyjelmsx-gmg9dhheAU-20" style="edgeStyle=orthogonalEdgeStyle;rounded=0;orthogonalLoop=1;jettySize=auto;html=1;entryX=1;entryY=1;entryDx=0;entryDy=0;" parent="1" source="aVHQifymBFc_l4_SO7kh-919" target="aVHQifymBFc_l4_SO7kh-820" edge="1">
          <mxGeometry relative="1" as="geometry">
            <Array as="points">
              <mxPoint x="10150" y="1770" />
              <mxPoint x="9321" y="1770" />
            </Array>
          </mxGeometry>
        </mxCell>
        <mxCell id="aVHQifymBFc_l4_SO7kh-919" value="ROLES" style="text;html=1;align=center;verticalAlign=middle;resizable=0;points=[];autosize=1;strokeColor=none;fillColor=none;" parent="1" vertex="1">
          <mxGeometry x="10140" y="1695" width="60" height="30" as="geometry" />
        </mxCell>
        <mxCell id="aVHQifymBFc_l4_SO7kh-923" style="edgeStyle=orthogonalEdgeStyle;rounded=0;orthogonalLoop=1;jettySize=auto;html=1;exitX=0.5;exitY=1;exitDx=0;exitDy=0;entryX=0.5;entryY=0;entryDx=0;entryDy=0;" parent="1" source="aVHQifymBFc_l4_SO7kh-924" target="aVHQifymBFc_l4_SO7kh-926" edge="1">
          <mxGeometry relative="1" as="geometry" />
        </mxCell>
        <mxCell id="pgeDyyS8oXksHp_Y4zWR-17" style="edgeStyle=orthogonalEdgeStyle;rounded=0;orthogonalLoop=1;jettySize=auto;html=1;exitX=0;exitY=0.5;exitDx=0;exitDy=0;" parent="1" source="aVHQifymBFc_l4_SO7kh-924" target="pgeDyyS8oXksHp_Y4zWR-16" edge="1">
          <mxGeometry relative="1" as="geometry" />
        </mxCell>
        <mxCell id="aVHQifymBFc_l4_SO7kh-924" value="Espectador" style="rounded=0;whiteSpace=wrap;html=1;" parent="1" vertex="1">
          <mxGeometry x="8555" y="2015" width="120" height="60" as="geometry" />
        </mxCell>
        <mxCell id="aVHQifymBFc_l4_SO7kh-926" value="ver Programa en vivo" style="ellipse;whiteSpace=wrap;html=1;aspect=fixed;" parent="1" vertex="1">
          <mxGeometry x="8550" y="2123" width="130" height="130" as="geometry" />
        </mxCell>
        <mxCell id="aVHQifymBFc_l4_SO7kh-927" style="edgeStyle=orthogonalEdgeStyle;rounded=0;orthogonalLoop=1;jettySize=auto;html=1;exitX=1;exitY=0;exitDx=0;exitDy=0;entryX=0.3;entryY=0.942;entryDx=0;entryDy=0;entryPerimeter=0;" parent="1" source="aVHQifymBFc_l4_SO7kh-844" target="aVHQifymBFc_l4_SO7kh-851" edge="1">
          <mxGeometry relative="1" as="geometry" />
        </mxCell>
        <mxCell id="aVHQifymBFc_l4_SO7kh-929" style="edgeStyle=orthogonalEdgeStyle;rounded=0;orthogonalLoop=1;jettySize=auto;html=1;entryX=0.5;entryY=0.042;entryDx=0;entryDy=0;entryPerimeter=0;" parent="1" source="aVHQifymBFc_l4_SO7kh-865" target="aVHQifymBFc_l4_SO7kh-903" edge="1">
          <mxGeometry relative="1" as="geometry">
            <Array as="points">
              <mxPoint x="9470" y="2195" />
              <mxPoint x="9470" y="2195" />
            </Array>
          </mxGeometry>
        </mxCell>
        <mxCell id="aVHQifymBFc_l4_SO7kh-930" style="edgeStyle=orthogonalEdgeStyle;rounded=0;orthogonalLoop=1;jettySize=auto;html=1;entryX=0.556;entryY=0;entryDx=0;entryDy=0;entryPerimeter=0;" parent="1" target="aVHQifymBFc_l4_SO7kh-889" edge="1">
          <mxGeometry relative="1" as="geometry">
            <Array as="points">
              <mxPoint x="8610" y="3670" />
              <mxPoint x="9420" y="3670" />
            </Array>
            <mxPoint x="8610" y="2454.8074069840786" as="sourcePoint" />
          </mxGeometry>
        </mxCell>
        <mxCell id="aVHQifymBFc_l4_SO7kh-931" value="AÃ±adir Segmentos" style="ellipse;whiteSpace=wrap;html=1;aspect=fixed;" parent="1" vertex="1">
          <mxGeometry x="9640" y="2440" width="130" height="130" as="geometry" />
        </mxCell>
        <mxCell id="aVHQifymBFc_l4_SO7kh-932" style="edgeStyle=orthogonalEdgeStyle;rounded=0;orthogonalLoop=1;jettySize=auto;html=1;entryX=0.514;entryY=1.143;entryDx=0;entryDy=0;entryPerimeter=0;" parent="1" source="aVHQifymBFc_l4_SO7kh-931" target="aVHQifymBFc_l4_SO7kh-910" edge="1">
          <mxGeometry relative="1" as="geometry" />
        </mxCell>
        <mxCell id="aVHQifymBFc_l4_SO7kh-933" value="Modificar Segmentos" style="ellipse;whiteSpace=wrap;html=1;aspect=fixed;" parent="1" vertex="1">
          <mxGeometry x="9640" y="2600" width="130" height="130" as="geometry" />
        </mxCell>
        <mxCell id="aVHQifymBFc_l4_SO7kh-935" style="edgeStyle=orthogonalEdgeStyle;rounded=0;orthogonalLoop=1;jettySize=auto;html=1;exitX=1;exitY=0;exitDx=0;exitDy=0;entryX=0.702;entryY=1.143;entryDx=0;entryDy=0;entryPerimeter=0;" parent="1" source="aVHQifymBFc_l4_SO7kh-933" target="aVHQifymBFc_l4_SO7kh-910" edge="1">
          <mxGeometry relative="1" as="geometry" />
        </mxCell>
        <mxCell id="aVHQifymBFc_l4_SO7kh-937" value="Ver Programa" style="ellipse;whiteSpace=wrap;html=1;aspect=fixed;" parent="1" vertex="1">
          <mxGeometry x="9640" y="2760" width="130" height="130" as="geometry" />
        </mxCell>
        <mxCell id="aVHQifymBFc_l4_SO7kh-938" value="AÃ±adir Programa" style="ellipse;whiteSpace=wrap;html=1;aspect=fixed;" parent="1" vertex="1">
          <mxGeometry x="9640" y="2905" width="130" height="130" as="geometry" />
        </mxCell>
        <mxCell id="aVHQifymBFc_l4_SO7kh-939" value="Modificar Programa" style="ellipse;whiteSpace=wrap;html=1;aspect=fixed;" parent="1" vertex="1">
          <mxGeometry x="9640" y="3065" width="130" height="130" as="geometry" />
        </mxCell>
        <mxCell id="aVHQifymBFc_l4_SO7kh-942" style="edgeStyle=orthogonalEdgeStyle;rounded=0;orthogonalLoop=1;jettySize=auto;html=1;exitX=0;exitY=1;exitDx=0;exitDy=0;entryX=0.025;entryY=0.033;entryDx=0;entryDy=0;entryPerimeter=0;" parent="1" source="aVHQifymBFc_l4_SO7kh-937" target="aVHQifymBFc_l4_SO7kh-865" edge="1">
          <mxGeometry relative="1" as="geometry">
            <Array as="points">
              <mxPoint x="9580" y="2870" />
              <mxPoint x="9580" y="2123" />
              <mxPoint x="9387" y="2123" />
            </Array>
          </mxGeometry>
        </mxCell>
        <mxCell id="aVHQifymBFc_l4_SO7kh-943" style="edgeStyle=orthogonalEdgeStyle;rounded=0;orthogonalLoop=1;jettySize=auto;html=1;exitX=0;exitY=1;exitDx=0;exitDy=0;entryX=0.195;entryY=0.033;entryDx=0;entryDy=0;entryPerimeter=0;" parent="1" source="aVHQifymBFc_l4_SO7kh-938" target="aVHQifymBFc_l4_SO7kh-865" edge="1">
          <mxGeometry relative="1" as="geometry">
            <Array as="points">
              <mxPoint x="9570" y="3016" />
              <mxPoint x="9570" y="2130" />
              <mxPoint x="9403" y="2130" />
            </Array>
          </mxGeometry>
        </mxCell>
        <mxCell id="aVHQifymBFc_l4_SO7kh-944" style="edgeStyle=orthogonalEdgeStyle;rounded=0;orthogonalLoop=1;jettySize=auto;html=1;exitX=0;exitY=0.5;exitDx=0;exitDy=0;entryX=0.627;entryY=-0.006;entryDx=0;entryDy=0;entryPerimeter=0;" parent="1" source="aVHQifymBFc_l4_SO7kh-939" target="aVHQifymBFc_l4_SO7kh-865" edge="1">
          <mxGeometry relative="1" as="geometry">
            <Array as="points">
              <mxPoint x="9558" y="3130" />
              <mxPoint x="9558" y="2140" />
              <mxPoint x="9441" y="2140" />
            </Array>
          </mxGeometry>
        </mxCell>
        <mxCell id="aVHQifymBFc_l4_SO7kh-947" style="edgeStyle=orthogonalEdgeStyle;rounded=0;orthogonalLoop=1;jettySize=auto;html=1;exitX=1;exitY=0.5;exitDx=0;exitDy=0;entryX=1.006;entryY=0.562;entryDx=0;entryDy=0;entryPerimeter=0;" parent="1" source="aVHQifymBFc_l4_SO7kh-937" target="aVHQifymBFc_l4_SO7kh-939" edge="1">
          <mxGeometry relative="1" as="geometry" />
        </mxCell>
        <mxCell id="aVHQifymBFc_l4_SO7kh-948" value="Ver Plataformas" style="ellipse;whiteSpace=wrap;html=1;aspect=fixed;" parent="1" vertex="1">
          <mxGeometry x="9640" y="3690" width="130" height="130" as="geometry" />
        </mxCell>
        <mxCell id="aVHQifymBFc_l4_SO7kh-949" value="AÃ±adir Plataformas" style="ellipse;whiteSpace=wrap;html=1;aspect=fixed;" parent="1" vertex="1">
          <mxGeometry x="9640" y="3840" width="130" height="130" as="geometry" />
        </mxCell>
        <mxCell id="aVHQifymBFc_l4_SO7kh-950" value="Modificar Plataforma" style="ellipse;whiteSpace=wrap;html=1;aspect=fixed;" parent="1" vertex="1">
          <mxGeometry x="9640" y="4000" width="130" height="130" as="geometry" />
        </mxCell>
        <mxCell id="aVHQifymBFc_l4_SO7kh-958" value="Reportes de audiencia" style="ellipse;whiteSpace=wrap;html=1;aspect=fixed;" parent="1" vertex="1">
          <mxGeometry x="9635" y="4168" width="130" height="130" as="geometry" />
        </mxCell>
        <mxCell id="aVHQifymBFc_l4_SO7kh-962" style="edgeStyle=orthogonalEdgeStyle;rounded=0;orthogonalLoop=1;jettySize=auto;html=1;exitX=0;exitY=0;exitDx=0;exitDy=0;entryX=0.6;entryY=0.033;entryDx=0;entryDy=0;entryPerimeter=0;" parent="1" source="aVHQifymBFc_l4_SO7kh-949" target="aVHQifymBFc_l4_SO7kh-898" edge="1">
          <mxGeometry relative="1" as="geometry" />
        </mxCell>
        <mxCell id="aVHQifymBFc_l4_SO7kh-963" style="edgeStyle=orthogonalEdgeStyle;rounded=0;orthogonalLoop=1;jettySize=auto;html=1;exitX=1;exitY=0.5;exitDx=0;exitDy=0;entryX=1;entryY=0.569;entryDx=0;entryDy=0;entryPerimeter=0;" parent="1" source="aVHQifymBFc_l4_SO7kh-948" target="aVHQifymBFc_l4_SO7kh-950" edge="1">
          <mxGeometry relative="1" as="geometry" />
        </mxCell>
        <mxCell id="aVHQifymBFc_l4_SO7kh-964" style="edgeStyle=orthogonalEdgeStyle;rounded=0;orthogonalLoop=1;jettySize=auto;html=1;exitX=0;exitY=0.5;exitDx=0;exitDy=0;entryX=0.609;entryY=1.033;entryDx=0;entryDy=0;entryPerimeter=0;" parent="1" source="aVHQifymBFc_l4_SO7kh-950" target="aVHQifymBFc_l4_SO7kh-898" edge="1">
          <mxGeometry relative="1" as="geometry" />
        </mxCell>
        <mxCell id="aVHQifymBFc_l4_SO7kh-965" value="Ver Usuarios" style="ellipse;whiteSpace=wrap;html=1;aspect=fixed;" parent="1" vertex="1">
          <mxGeometry x="9635" y="3220" width="130" height="130" as="geometry" />
        </mxCell>
        <mxCell id="aVHQifymBFc_l4_SO7kh-966" value="AÃ±adir Usuarios" style="ellipse;whiteSpace=wrap;html=1;aspect=fixed;" parent="1" vertex="1">
          <mxGeometry x="9635" y="3365" width="130" height="130" as="geometry" />
        </mxCell>
        <mxCell id="aVHQifymBFc_l4_SO7kh-967" value="Modificar Usuarios" style="ellipse;whiteSpace=wrap;html=1;aspect=fixed;" parent="1" vertex="1">
          <mxGeometry x="9635" y="3525" width="130" height="130" as="geometry" />
        </mxCell>
        <mxCell id="aVHQifymBFc_l4_SO7kh-968" style="edgeStyle=orthogonalEdgeStyle;rounded=0;orthogonalLoop=1;jettySize=auto;html=1;exitX=1;exitY=1;exitDx=0;exitDy=0;entryX=1.006;entryY=0.562;entryDx=0;entryDy=0;entryPerimeter=0;" parent="1" source="aVHQifymBFc_l4_SO7kh-965" target="aVHQifymBFc_l4_SO7kh-967" edge="1">
          <mxGeometry relative="1" as="geometry">
            <Array as="points">
              <mxPoint x="9780" y="3331" />
              <mxPoint x="9780" y="3437" />
              <mxPoint x="9785" y="3437" />
              <mxPoint x="9785" y="3598" />
            </Array>
          </mxGeometry>
        </mxCell>
        <mxCell id="aVHQifymBFc_l4_SO7kh-969" style="edgeStyle=orthogonalEdgeStyle;rounded=0;orthogonalLoop=1;jettySize=auto;html=1;exitX=1;exitY=1;exitDx=0;exitDy=0;entryX=0.787;entryY=1.154;entryDx=0;entryDy=0;entryPerimeter=0;" parent="1" source="aVHQifymBFc_l4_SO7kh-643" target="aVHQifymBFc_l4_SO7kh-677" edge="1">
          <mxGeometry relative="1" as="geometry" />
        </mxCell>
        <mxCell id="aVHQifymBFc_l4_SO7kh-970" style="edgeStyle=orthogonalEdgeStyle;rounded=0;orthogonalLoop=1;jettySize=auto;html=1;entryX=0.995;entryY=0.36;entryDx=0;entryDy=0;entryPerimeter=0;" parent="1" source="aVHQifymBFc_l4_SO7kh-677" target="aVHQifymBFc_l4_SO7kh-643" edge="1">
          <mxGeometry relative="1" as="geometry">
            <Array as="points">
              <mxPoint x="8010" y="1675" />
              <mxPoint x="8010" y="2597" />
            </Array>
          </mxGeometry>
        </mxCell>
        <mxCell id="aVHQifymBFc_l4_SO7kh-976" style="edgeStyle=orthogonalEdgeStyle;rounded=0;orthogonalLoop=1;jettySize=auto;html=1;exitX=1;exitY=0;exitDx=0;exitDy=0;" parent="1" source="aVHQifymBFc_l4_SO7kh-966" target="aVHQifymBFc_l4_SO7kh-919" edge="1">
          <mxGeometry relative="1" as="geometry" />
        </mxCell>
        <mxCell id="aVHQifymBFc_l4_SO7kh-977" style="edgeStyle=orthogonalEdgeStyle;rounded=0;orthogonalLoop=1;jettySize=auto;html=1;exitX=1;exitY=0.5;exitDx=0;exitDy=0;entryX=0.314;entryY=-0.004;entryDx=0;entryDy=0;entryPerimeter=0;" parent="1" source="aVHQifymBFc_l4_SO7kh-966" target="aVHQifymBFc_l4_SO7kh-892" edge="1">
          <mxGeometry relative="1" as="geometry">
            <Array as="points">
              <mxPoint x="10320" y="3430" />
              <mxPoint x="10320" y="1680" />
              <mxPoint x="9528" y="1680" />
            </Array>
          </mxGeometry>
        </mxCell>
        <mxCell id="aVHQifymBFc_l4_SO7kh-978" style="edgeStyle=orthogonalEdgeStyle;rounded=0;orthogonalLoop=1;jettySize=auto;html=1;exitX=1;exitY=0;exitDx=0;exitDy=0;entryX=0.927;entryY=0.97;entryDx=0;entryDy=0;entryPerimeter=0;" parent="1" source="aVHQifymBFc_l4_SO7kh-967" target="aVHQifymBFc_l4_SO7kh-919" edge="1">
          <mxGeometry relative="1" as="geometry" />
        </mxCell>
        <mxCell id="aVHQifymBFc_l4_SO7kh-979" style="edgeStyle=orthogonalEdgeStyle;rounded=0;orthogonalLoop=1;jettySize=auto;html=1;exitX=1;exitY=1;exitDx=0;exitDy=0;entryX=0.583;entryY=-0.004;entryDx=0;entryDy=0;entryPerimeter=0;" parent="1" source="aVHQifymBFc_l4_SO7kh-967" target="aVHQifymBFc_l4_SO7kh-892" edge="1">
          <mxGeometry relative="1" as="geometry">
            <Array as="points">
              <mxPoint x="10260" y="3636" />
              <mxPoint x="10260" y="1690" />
              <mxPoint x="9552" y="1690" />
            </Array>
          </mxGeometry>
        </mxCell>
        <mxCell id="aVHQifymBFc_l4_SO7kh-980" style="edgeStyle=orthogonalEdgeStyle;rounded=0;orthogonalLoop=1;jettySize=auto;html=1;exitX=1;exitY=0;exitDx=0;exitDy=0;entryX=0.038;entryY=0.539;entryDx=0;entryDy=0;entryPerimeter=0;" parent="1" source="aVHQifymBFc_l4_SO7kh-606" target="aVHQifymBFc_l4_SO7kh-613" edge="1">
          <mxGeometry relative="1" as="geometry" />
        </mxCell>
        <mxCell id="aVHQifymBFc_l4_SO7kh-981" style="edgeStyle=orthogonalEdgeStyle;rounded=0;orthogonalLoop=1;jettySize=auto;html=1;exitX=1;exitY=1;exitDx=0;exitDy=0;entryX=0.718;entryY=0.994;entryDx=0;entryDy=0;entryPerimeter=0;" parent="1" source="aVHQifymBFc_l4_SO7kh-584" target="aVHQifymBFc_l4_SO7kh-617" edge="1">
          <mxGeometry relative="1" as="geometry" />
        </mxCell>
        <mxCell id="aVHQifymBFc_l4_SO7kh-988" style="edgeStyle=orthogonalEdgeStyle;rounded=0;orthogonalLoop=1;jettySize=auto;html=1;exitX=1;exitY=1;exitDx=0;exitDy=0;" parent="1" source="aVHQifymBFc_l4_SO7kh-982" target="aVHQifymBFc_l4_SO7kh-851" edge="1">
          <mxGeometry relative="1" as="geometry" />
        </mxCell>
        <mxCell id="aVHQifymBFc_l4_SO7kh-982" value="Modificar contenido" style="ellipse;whiteSpace=wrap;html=1;aspect=fixed;" parent="1" vertex="1">
          <mxGeometry x="8830" y="2430" width="130" height="130" as="geometry" />
        </mxCell>
        <mxCell id="aVHQifymBFc_l4_SO7kh-987" style="edgeStyle=orthogonalEdgeStyle;rounded=0;orthogonalLoop=1;jettySize=auto;html=1;entryX=0.923;entryY=0.346;entryDx=0;entryDy=0;entryPerimeter=0;" parent="1" source="aVHQifymBFc_l4_SO7kh-851" target="aVHQifymBFc_l4_SO7kh-822" edge="1">
          <mxGeometry relative="1" as="geometry" />
        </mxCell>
        <mxCell id="aVHQifymBFc_l4_SO7kh-989" style="edgeStyle=orthogonalEdgeStyle;rounded=0;orthogonalLoop=1;jettySize=auto;html=1;exitX=1;exitY=1;exitDx=0;exitDy=0;entryX=1;entryY=0.5;entryDx=0;entryDy=0;" parent="1" source="aVHQifymBFc_l4_SO7kh-990" target="aVHQifymBFc_l4_SO7kh-992" edge="1">
          <mxGeometry relative="1" as="geometry">
            <Array as="points">
              <mxPoint x="8980" y="2681" />
              <mxPoint x="8980" y="2930" />
            </Array>
          </mxGeometry>
        </mxCell>
        <mxCell id="aVHQifymBFc_l4_SO7kh-990" value="Ver Estados" style="ellipse;whiteSpace=wrap;html=1;aspect=fixed;" parent="1" vertex="1">
          <mxGeometry x="8830" y="2570" width="130" height="130" as="geometry" />
        </mxCell>
        <mxCell id="aVHQifymBFc_l4_SO7kh-998" style="edgeStyle=orthogonalEdgeStyle;rounded=0;orthogonalLoop=1;jettySize=auto;html=1;exitX=1;exitY=0.5;exitDx=0;exitDy=0;" parent="1" source="aVHQifymBFc_l4_SO7kh-991" target="aVHQifymBFc_l4_SO7kh-996" edge="1">
          <mxGeometry relative="1" as="geometry" />
        </mxCell>
        <mxCell id="aVHQifymBFc_l4_SO7kh-991" value="AÃ±adir Estado" style="ellipse;whiteSpace=wrap;html=1;aspect=fixed;" parent="1" vertex="1">
          <mxGeometry x="8830" y="2720" width="130" height="130" as="geometry" />
        </mxCell>
        <mxCell id="aVHQifymBFc_l4_SO7kh-992" value="Modificar Estado" style="ellipse;whiteSpace=wrap;html=1;aspect=fixed;" parent="1" vertex="1">
          <mxGeometry x="8830" y="2865" width="130" height="130" as="geometry" />
        </mxCell>
        <mxCell id="aVHQifymBFc_l4_SO7kh-993" value="" style="endArrow=none;html=1;rounded=0;" parent="1" edge="1">
          <mxGeometry width="50" height="50" relative="1" as="geometry">
            <mxPoint x="9020" y="2662" as="sourcePoint" />
            <mxPoint x="9100" y="2662.16" as="targetPoint" />
            <Array as="points">
              <mxPoint x="9020" y="2662" />
            </Array>
          </mxGeometry>
        </mxCell>
        <mxCell id="aVHQifymBFc_l4_SO7kh-994" value="" style="endArrow=none;html=1;rounded=0;" parent="1" edge="1">
          <mxGeometry width="50" height="50" relative="1" as="geometry">
            <mxPoint x="9020" y="2682.16" as="sourcePoint" />
            <mxPoint x="9100" y="2682.32" as="targetPoint" />
            <Array as="points">
              <mxPoint x="9020" y="2682.16" />
            </Array>
          </mxGeometry>
        </mxCell>
        <mxCell id="aVHQifymBFc_l4_SO7kh-997" style="edgeStyle=orthogonalEdgeStyle;rounded=0;orthogonalLoop=1;jettySize=auto;html=1;" parent="1" source="aVHQifymBFc_l4_SO7kh-996" target="aVHQifymBFc_l4_SO7kh-990" edge="1">
          <mxGeometry relative="1" as="geometry" />
        </mxCell>
        <mxCell id="aVHQifymBFc_l4_SO7kh-996" value="ESTADOS" style="text;html=1;align=center;verticalAlign=middle;resizable=0;points=[];autosize=1;strokeColor=none;fillColor=none;" parent="1" vertex="1">
          <mxGeometry x="9020" y="2660" width="80" height="30" as="geometry" />
        </mxCell>
        <mxCell id="aVHQifymBFc_l4_SO7kh-999" style="edgeStyle=orthogonalEdgeStyle;rounded=0;orthogonalLoop=1;jettySize=auto;html=1;exitX=1;exitY=1;exitDx=0;exitDy=0;entryX=0.832;entryY=0.988;entryDx=0;entryDy=0;entryPerimeter=0;" parent="1" source="aVHQifymBFc_l4_SO7kh-992" target="aVHQifymBFc_l4_SO7kh-996" edge="1">
          <mxGeometry relative="1" as="geometry" />
        </mxCell>
        <mxCell id="aVHQifymBFc_l4_SO7kh-1002" style="edgeStyle=orthogonalEdgeStyle;rounded=0;orthogonalLoop=1;jettySize=auto;html=1;exitX=0;exitY=0.5;exitDx=0;exitDy=0;entryX=0.008;entryY=0.55;entryDx=0;entryDy=0;entryPerimeter=0;" parent="1" source="aVHQifymBFc_l4_SO7kh-837" target="aVHQifymBFc_l4_SO7kh-823" edge="1">
          <mxGeometry relative="1" as="geometry" />
        </mxCell>
        <mxCell id="pgeDyyS8oXksHp_Y4zWR-1" value="0" style="text;html=1;align=center;verticalAlign=middle;resizable=0;points=[];autosize=1;strokeColor=none;fillColor=none;" parent="1" vertex="1">
          <mxGeometry x="5265" y="1680" width="30" height="30" as="geometry" />
        </mxCell>
        <mxCell id="pgeDyyS8oXksHp_Y4zWR-2" value="1" style="text;html=1;align=center;verticalAlign=middle;resizable=0;points=[];autosize=1;strokeColor=none;fillColor=none;" parent="1" vertex="1">
          <mxGeometry x="6060" y="1660" width="30" height="30" as="geometry" />
        </mxCell>
        <mxCell id="pgeDyyS8oXksHp_Y4zWR-3" value="1" style="text;html=1;align=center;verticalAlign=middle;resizable=0;points=[];autosize=1;strokeColor=none;fillColor=none;" parent="1" vertex="1">
          <mxGeometry x="6060" y="1870" width="30" height="30" as="geometry" />
        </mxCell>
        <mxCell id="pgeDyyS8oXksHp_Y4zWR-4" value="1" style="text;html=1;align=center;verticalAlign=middle;resizable=0;points=[];autosize=1;strokeColor=none;fillColor=none;" parent="1" vertex="1">
          <mxGeometry x="6060" y="2040" width="30" height="30" as="geometry" />
        </mxCell>
        <mxCell id="pgeDyyS8oXksHp_Y4zWR-5" value="1" style="text;html=1;align=center;verticalAlign=middle;resizable=0;points=[];autosize=1;strokeColor=none;fillColor=none;" parent="1" vertex="1">
          <mxGeometry x="6060" y="2208" width="30" height="30" as="geometry" />
        </mxCell>
        <mxCell id="pgeDyyS8oXksHp_Y4zWR-6" value="1" style="text;html=1;align=center;verticalAlign=middle;resizable=0;points=[];autosize=1;strokeColor=none;fillColor=none;" parent="1" vertex="1">
          <mxGeometry x="6060" y="2375" width="30" height="30" as="geometry" />
        </mxCell>
        <mxCell id="pgeDyyS8oXksHp_Y4zWR-8" value="1" style="text;html=1;align=center;verticalAlign=middle;resizable=0;points=[];autosize=1;strokeColor=none;fillColor=none;" parent="1" vertex="1">
          <mxGeometry x="6060" y="2540" width="30" height="30" as="geometry" />
        </mxCell>
        <mxCell id="pgeDyyS8oXksHp_Y4zWR-9" value="1" style="text;html=1;align=center;verticalAlign=middle;resizable=0;points=[];autosize=1;strokeColor=none;fillColor=none;" parent="1" vertex="1">
          <mxGeometry x="6060" y="2690" width="30" height="30" as="geometry" />
        </mxCell>
        <mxCell id="pgeDyyS8oXksHp_Y4zWR-10" value="1" style="text;html=1;align=center;verticalAlign=middle;resizable=0;points=[];autosize=1;strokeColor=none;fillColor=none;" parent="1" vertex="1">
          <mxGeometry x="6060" y="2870" width="30" height="30" as="geometry" />
        </mxCell>
        <mxCell id="pgeDyyS8oXksHp_Y4zWR-11" value="1" style="text;html=1;align=center;verticalAlign=middle;resizable=0;points=[];autosize=1;strokeColor=none;fillColor=none;" parent="1" vertex="1">
          <mxGeometry x="6060" y="3040" width="30" height="30" as="geometry" />
        </mxCell>
        <mxCell id="pgeDyyS8oXksHp_Y4zWR-12" value="1" style="text;html=1;align=center;verticalAlign=middle;resizable=0;points=[];autosize=1;strokeColor=none;fillColor=none;" parent="1" vertex="1">
          <mxGeometry x="6060" y="3210" width="30" height="30" as="geometry" />
        </mxCell>
        <mxCell id="pgeDyyS8oXksHp_Y4zWR-13" value="1" style="text;html=1;align=center;verticalAlign=middle;resizable=0;points=[];autosize=1;strokeColor=none;fillColor=none;" parent="1" vertex="1">
          <mxGeometry x="7145" y="1475" width="30" height="30" as="geometry" />
        </mxCell>
        <mxCell id="pgeDyyS8oXksHp_Y4zWR-16" value="ver Contenido" style="ellipse;whiteSpace=wrap;html=1;aspect=fixed;" parent="1" vertex="1">
          <mxGeometry x="8400" y="2130" width="130" height="130" as="geometry" />
        </mxCell>
        <mxCell id="pgeDyyS8oXksHp_Y4zWR-20" value="2" style="text;html=1;align=center;verticalAlign=middle;resizable=0;points=[];autosize=1;strokeColor=none;fillColor=none;" parent="1" vertex="1">
          <mxGeometry x="7140" y="2093" width="30" height="30" as="geometry" />
        </mxCell>
        <mxCell id="pgeDyyS8oXksHp_Y4zWR-21" value="2" style="text;html=1;align=center;verticalAlign=middle;resizable=0;points=[];autosize=1;strokeColor=none;fillColor=none;" parent="1" vertex="1">
          <mxGeometry x="7565" y="2113" width="30" height="30" as="geometry" />
        </mxCell>
        <mxCell id="pgeDyyS8oXksHp_Y4zWR-22" value="2" style="text;html=1;align=center;verticalAlign=middle;resizable=0;points=[];autosize=1;strokeColor=none;fillColor=none;" parent="1" vertex="1">
          <mxGeometry x="7570" y="2265" width="30" height="30" as="geometry" />
        </mxCell>
        <mxCell id="pgeDyyS8oXksHp_Y4zWR-26" value="2" style="text;html=1;align=center;verticalAlign=middle;resizable=0;points=[];autosize=1;strokeColor=none;fillColor=none;" parent="1" vertex="1">
          <mxGeometry x="7140" y="2240" width="30" height="30" as="geometry" />
        </mxCell>
        <mxCell id="pgeDyyS8oXksHp_Y4zWR-27" value="2" style="text;html=1;align=center;verticalAlign=middle;resizable=0;points=[];autosize=1;strokeColor=none;fillColor=none;" parent="1" vertex="1">
          <mxGeometry x="7145" y="2390" width="30" height="30" as="geometry" />
        </mxCell>
        <mxCell id="pgeDyyS8oXksHp_Y4zWR-28" value="2" style="text;html=1;align=center;verticalAlign=middle;resizable=0;points=[];autosize=1;strokeColor=none;fillColor=none;" parent="1" vertex="1">
          <mxGeometry x="7570" y="2418" width="30" height="30" as="geometry" />
        </mxCell>
        <mxCell id="pgeDyyS8oXksHp_Y4zWR-29" value="2" style="text;html=1;align=center;verticalAlign=middle;resizable=0;points=[];autosize=1;strokeColor=none;fillColor=none;" parent="1" vertex="1">
          <mxGeometry x="7570" y="2560" width="30" height="30" as="geometry" />
        </mxCell>
        <mxCell id="pgeDyyS8oXksHp_Y4zWR-34" value="2" style="text;html=1;align=center;verticalAlign=middle;resizable=0;points=[];autosize=1;strokeColor=none;fillColor=none;" parent="1" vertex="1">
          <mxGeometry x="6760" y="2180" width="30" height="30" as="geometry" />
        </mxCell>
        <mxCell id="pgeDyyS8oXksHp_Y4zWR-35" value="2" style="text;html=1;align=center;verticalAlign=middle;resizable=0;points=[];autosize=1;strokeColor=none;fillColor=none;" parent="1" vertex="1">
          <mxGeometry x="6760" y="2420" width="30" height="30" as="geometry" />
        </mxCell>
        <mxCell id="pgeDyyS8oXksHp_Y4zWR-36" value="2" style="text;html=1;align=center;verticalAlign=middle;resizable=0;points=[];autosize=1;strokeColor=none;fillColor=none;" parent="1" vertex="1">
          <mxGeometry x="6480" y="2310" width="30" height="30" as="geometry" />
        </mxCell>
        <mxCell id="pgeDyyS8oXksHp_Y4zWR-37" value="2" style="text;html=1;align=center;verticalAlign=middle;resizable=0;points=[];autosize=1;strokeColor=none;fillColor=none;" parent="1" vertex="1">
          <mxGeometry x="6480" y="2100" width="30" height="30" as="geometry" />
        </mxCell>
        <mxCell id="pgeDyyS8oXksHp_Y4zWR-38" value="2" style="text;html=1;align=center;verticalAlign=middle;resizable=0;points=[];autosize=1;strokeColor=none;fillColor=none;" parent="1" vertex="1">
          <mxGeometry x="6330" y="2108" width="30" height="30" as="geometry" />
        </mxCell>
        <mxCell id="pgeDyyS8oXksHp_Y4zWR-39" value="2" style="text;html=1;align=center;verticalAlign=middle;resizable=0;points=[];autosize=1;strokeColor=none;fillColor=none;" parent="1" vertex="1">
          <mxGeometry x="7570" y="2700" width="30" height="30" as="geometry" />
        </mxCell>
        <mxCell id="pgeDyyS8oXksHp_Y4zWR-40" value="2" style="text;html=1;align=center;verticalAlign=middle;resizable=0;points=[];autosize=1;strokeColor=none;fillColor=none;" parent="1" vertex="1">
          <mxGeometry x="7570" y="2880" width="30" height="30" as="geometry" />
        </mxCell>
        <mxCell id="pgeDyyS8oXksHp_Y4zWR-41" value="2" style="text;html=1;align=center;verticalAlign=middle;resizable=0;points=[];autosize=1;strokeColor=none;fillColor=none;" parent="1" vertex="1">
          <mxGeometry x="8450" y="2143" width="30" height="30" as="geometry" />
        </mxCell>
        <mxCell id="pgeDyyS8oXksHp_Y4zWR-42" value="2" style="text;html=1;align=center;verticalAlign=middle;resizable=0;points=[];autosize=1;strokeColor=none;fillColor=none;" parent="1" vertex="1">
          <mxGeometry x="8600" y="2138" width="30" height="30" as="geometry" />
        </mxCell>
        <mxCell id="pgeDyyS8oXksHp_Y4zWR-43" value="2" style="text;html=1;align=center;verticalAlign=middle;resizable=0;points=[];autosize=1;strokeColor=none;fillColor=none;" parent="1" vertex="1">
          <mxGeometry x="8600" y="2340" width="30" height="30" as="geometry" />
        </mxCell>
        <mxCell id="pgeDyyS8oXksHp_Y4zWR-44" value="3" style="text;html=1;align=center;verticalAlign=middle;resizable=0;points=[];autosize=1;strokeColor=none;fillColor=none;" parent="1" vertex="1">
          <mxGeometry x="8880" y="2150" width="30" height="30" as="geometry" />
        </mxCell>
        <mxCell id="pgeDyyS8oXksHp_Y4zWR-45" value="3" style="text;html=1;align=center;verticalAlign=middle;resizable=0;points=[];autosize=1;strokeColor=none;fillColor=none;" parent="1" vertex="1">
          <mxGeometry x="8880" y="2295" width="30" height="30" as="geometry" />
        </mxCell>
        <mxCell id="pgeDyyS8oXksHp_Y4zWR-46" value="3" style="text;html=1;align=center;verticalAlign=middle;resizable=0;points=[];autosize=1;strokeColor=none;fillColor=none;" parent="1" vertex="1">
          <mxGeometry x="8880" y="2440" width="30" height="30" as="geometry" />
        </mxCell>
        <mxCell id="pgeDyyS8oXksHp_Y4zWR-47" value="3" style="text;html=1;align=center;verticalAlign=middle;resizable=0;points=[];autosize=1;strokeColor=none;fillColor=none;" parent="1" vertex="1">
          <mxGeometry x="8880" y="2580" width="30" height="30" as="geometry" />
        </mxCell>
        <mxCell id="pgeDyyS8oXksHp_Y4zWR-48" value="3" style="text;html=1;align=center;verticalAlign=middle;resizable=0;points=[];autosize=1;strokeColor=none;fillColor=none;" parent="1" vertex="1">
          <mxGeometry x="8880" y="2730" width="30" height="30" as="geometry" />
        </mxCell>
        <mxCell id="pgeDyyS8oXksHp_Y4zWR-49" value="3" style="text;html=1;align=center;verticalAlign=middle;resizable=0;points=[];autosize=1;strokeColor=none;fillColor=none;" parent="1" vertex="1">
          <mxGeometry x="8880" y="2875" width="30" height="30" as="geometry" />
        </mxCell>
        <mxCell id="pgeDyyS8oXksHp_Y4zWR-50" value="2" style="text;html=1;align=center;verticalAlign=middle;resizable=0;points=[];autosize=1;strokeColor=none;fillColor=none;" parent="1" vertex="1">
          <mxGeometry x="9265" y="2138" width="30" height="30" as="geometry" />
        </mxCell>
        <mxCell id="pgeDyyS8oXksHp_Y4zWR-51" value="2" style="text;html=1;align=center;verticalAlign=middle;resizable=0;points=[];autosize=1;strokeColor=none;fillColor=none;" parent="1" vertex="1">
          <mxGeometry x="9265" y="2273" width="30" height="30" as="geometry" />
        </mxCell>
        <mxCell id="pgeDyyS8oXksHp_Y4zWR-52" value="2" style="text;html=1;align=center;verticalAlign=middle;resizable=0;points=[];autosize=1;strokeColor=none;fillColor=none;" parent="1" vertex="1">
          <mxGeometry x="9265" y="2425" width="30" height="30" as="geometry" />
        </mxCell>
        <mxCell id="pgeDyyS8oXksHp_Y4zWR-55" value="1" style="text;html=1;align=center;verticalAlign=middle;resizable=0;points=[];autosize=1;strokeColor=none;fillColor=none;" parent="1" vertex="1">
          <mxGeometry x="9265" y="1520" width="30" height="30" as="geometry" />
        </mxCell>
        <mxCell id="pgeDyyS8oXksHp_Y4zWR-56" value="2" style="text;html=1;align=center;verticalAlign=middle;resizable=0;points=[];autosize=1;strokeColor=none;fillColor=none;" parent="1" vertex="1">
          <mxGeometry x="9685" y="2160" width="30" height="30" as="geometry" />
        </mxCell>
        <mxCell id="pgeDyyS8oXksHp_Y4zWR-57" value="3" style="text;html=1;align=center;verticalAlign=middle;resizable=0;points=[];autosize=1;strokeColor=none;fillColor=none;" parent="1" vertex="1">
          <mxGeometry x="9690" y="2303" width="30" height="30" as="geometry" />
        </mxCell>
        <mxCell id="pgeDyyS8oXksHp_Y4zWR-58" value="3" style="text;html=1;align=center;verticalAlign=middle;resizable=0;points=[];autosize=1;strokeColor=none;fillColor=none;" parent="1" vertex="1">
          <mxGeometry x="9690" y="2450" width="30" height="30" as="geometry" />
        </mxCell>
        <mxCell id="pgeDyyS8oXksHp_Y4zWR-59" value="3" style="text;html=1;align=center;verticalAlign=middle;resizable=0;points=[];autosize=1;strokeColor=none;fillColor=none;" parent="1" vertex="1">
          <mxGeometry x="9690" y="2610" width="30" height="30" as="geometry" />
        </mxCell>
        <mxCell id="pgeDyyS8oXksHp_Y4zWR-60" value="3" style="text;html=1;align=center;verticalAlign=middle;resizable=0;points=[];autosize=1;strokeColor=none;fillColor=none;" parent="1" vertex="1">
          <mxGeometry x="9690" y="2770" width="30" height="30" as="geometry" />
        </mxCell>
        <mxCell id="pgeDyyS8oXksHp_Y4zWR-61" value="3" style="text;html=1;align=center;verticalAlign=middle;resizable=0;points=[];autosize=1;strokeColor=none;fillColor=none;" parent="1" vertex="1">
          <mxGeometry x="9690" y="2915" width="30" height="30" as="geometry" />
        </mxCell>
        <mxCell id="pgeDyyS8oXksHp_Y4zWR-62" value="3" style="text;html=1;align=center;verticalAlign=middle;resizable=0;points=[];autosize=1;strokeColor=none;fillColor=none;" parent="1" vertex="1">
          <mxGeometry x="9690" y="3080" width="30" height="30" as="geometry" />
        </mxCell>
        <mxCell id="pgeDyyS8oXksHp_Y4zWR-63" value="3" style="text;html=1;align=center;verticalAlign=middle;resizable=0;points=[];autosize=1;strokeColor=none;fillColor=none;" parent="1" vertex="1">
          <mxGeometry x="9685" y="3230" width="30" height="30" as="geometry" />
        </mxCell>
        <mxCell id="pgeDyyS8oXksHp_Y4zWR-64" value="3" style="text;html=1;align=center;verticalAlign=middle;resizable=0;points=[];autosize=1;strokeColor=none;fillColor=none;" parent="1" vertex="1">
          <mxGeometry x="9685" y="3370" width="30" height="30" as="geometry" />
        </mxCell>
        <mxCell id="pgeDyyS8oXksHp_Y4zWR-65" value="3" style="text;html=1;align=center;verticalAlign=middle;resizable=0;points=[];autosize=1;strokeColor=none;fillColor=none;" parent="1" vertex="1">
          <mxGeometry x="9685" y="3530" width="30" height="30" as="geometry" />
        </mxCell>
        <mxCell id="pgeDyyS8oXksHp_Y4zWR-66" value="3" style="text;html=1;align=center;verticalAlign=middle;resizable=0;points=[];autosize=1;strokeColor=none;fillColor=none;" parent="1" vertex="1">
          <mxGeometry x="9690" y="3700" width="30" height="30" as="geometry" />
        </mxCell>
        <mxCell id="pgeDyyS8oXksHp_Y4zWR-67" value="3" style="text;html=1;align=center;verticalAlign=middle;resizable=0;points=[];autosize=1;strokeColor=none;fillColor=none;" parent="1" vertex="1">
          <mxGeometry x="9690" y="3850" width="30" height="30" as="geometry" />
        </mxCell>
        <mxCell id="pgeDyyS8oXksHp_Y4zWR-68" value="3" style="text;html=1;align=center;verticalAlign=middle;resizable=0;points=[];autosize=1;strokeColor=none;fillColor=none;" parent="1" vertex="1">
          <mxGeometry x="9690" y="4010" width="30" height="30" as="geometry" />
        </mxCell>
        <mxCell id="pgeDyyS8oXksHp_Y4zWR-70" value="2" style="text;html=1;align=center;verticalAlign=middle;resizable=0;points=[];autosize=1;strokeColor=none;fillColor=none;" parent="1" vertex="1">
          <mxGeometry x="9685" y="4180" width="30" height="30" as="geometry" />
        </mxCell>
        <mxCell id="wUyjelmsx-gmg9dhheAU-4" style="edgeStyle=orthogonalEdgeStyle;rounded=0;orthogonalLoop=1;jettySize=auto;html=1;exitX=0.5;exitY=1;exitDx=0;exitDy=0;entryX=0.521;entryY=0.033;entryDx=0;entryDy=0;entryPerimeter=0;" parent="1" source="wUyjelmsx-gmg9dhheAU-1" target="pgeDyyS8oXksHp_Y4zWR-2" edge="1">
          <mxGeometry relative="1" as="geometry" />
        </mxCell>
        <mxCell id="wUyjelmsx-gmg9dhheAU-1" value="Registrarse" style="ellipse;whiteSpace=wrap;html=1;aspect=fixed;" parent="1" vertex="1">
          <mxGeometry x="6010" y="1505" width="130" height="130" as="geometry" />
        </mxCell>
        <mxCell id="wUyjelmsx-gmg9dhheAU-2" value="1" style="text;html=1;align=center;verticalAlign=middle;resizable=0;points=[];autosize=1;strokeColor=none;fillColor=none;" parent="1" vertex="1">
          <mxGeometry x="6060" y="1520" width="30" height="30" as="geometry" />
        </mxCell>
        <mxCell id="wUyjelmsx-gmg9dhheAU-9" style="edgeStyle=orthogonalEdgeStyle;rounded=0;orthogonalLoop=1;jettySize=auto;html=1;exitX=0.5;exitY=1;exitDx=0;exitDy=0;entryX=0.5;entryY=0;entryDx=0;entryDy=0;" parent="1" source="wUyjelmsx-gmg9dhheAU-7" target="aVHQifymBFc_l4_SO7kh-580" edge="1">
          <mxGeometry relative="1" as="geometry" />
        </mxCell>
        <mxCell id="wUyjelmsx-gmg9dhheAU-14" style="edgeStyle=orthogonalEdgeStyle;rounded=0;orthogonalLoop=1;jettySize=auto;html=1;exitX=1;exitY=0.5;exitDx=0;exitDy=0;entryX=0;entryY=0;entryDx=0;entryDy=0;entryPerimeter=0;" parent="1" source="wUyjelmsx-gmg9dhheAU-7" target="aVHQifymBFc_l4_SO7kh-677" edge="1">
          <mxGeometry relative="1" as="geometry" />
        </mxCell>
        <mxCell id="wUyjelmsx-gmg9dhheAU-15" style="edgeStyle=orthogonalEdgeStyle;rounded=0;orthogonalLoop=1;jettySize=auto;html=1;exitX=1;exitY=1;exitDx=0;exitDy=0;entryX=0.705;entryY=-0.059;entryDx=0;entryDy=0;entryPerimeter=0;" parent="1" source="wUyjelmsx-gmg9dhheAU-7" target="aVHQifymBFc_l4_SO7kh-653" edge="1">
          <mxGeometry relative="1" as="geometry" />
        </mxCell>
        <mxCell id="wUyjelmsx-gmg9dhheAU-7" value="Registrarse" style="ellipse;whiteSpace=wrap;html=1;aspect=fixed;" parent="1" vertex="1">
          <mxGeometry x="7090" y="1300" width="130" height="130" as="geometry" />
        </mxCell>
        <mxCell id="wUyjelmsx-gmg9dhheAU-8" value="1" style="text;html=1;align=center;verticalAlign=middle;resizable=0;points=[];autosize=1;strokeColor=none;fillColor=none;" parent="1" vertex="1">
          <mxGeometry x="7140" y="1315" width="30" height="30" as="geometry" />
        </mxCell>
        <mxCell id="wUyjelmsx-gmg9dhheAU-18" style="edgeStyle=orthogonalEdgeStyle;rounded=0;orthogonalLoop=1;jettySize=auto;html=1;exitX=0.5;exitY=1;exitDx=0;exitDy=0;entryX=0.5;entryY=0;entryDx=0;entryDy=0;" parent="1" source="wUyjelmsx-gmg9dhheAU-16" target="aVHQifymBFc_l4_SO7kh-820" edge="1">
          <mxGeometry relative="1" as="geometry" />
        </mxCell>
        <mxCell id="wUyjelmsx-gmg9dhheAU-21" style="edgeStyle=orthogonalEdgeStyle;rounded=0;orthogonalLoop=1;jettySize=auto;html=1;exitX=1;exitY=0.5;exitDx=0;exitDy=0;entryX=0.073;entryY=-0.218;entryDx=0;entryDy=0;entryPerimeter=0;" parent="1" source="wUyjelmsx-gmg9dhheAU-16" target="aVHQifymBFc_l4_SO7kh-892" edge="1">
          <mxGeometry relative="1" as="geometry" />
        </mxCell>
        <mxCell id="wUyjelmsx-gmg9dhheAU-22" style="edgeStyle=orthogonalEdgeStyle;rounded=0;orthogonalLoop=1;jettySize=auto;html=1;exitX=1;exitY=0;exitDx=0;exitDy=0;" parent="1" source="wUyjelmsx-gmg9dhheAU-16" target="aVHQifymBFc_l4_SO7kh-919" edge="1">
          <mxGeometry relative="1" as="geometry" />
        </mxCell>
        <mxCell id="wUyjelmsx-gmg9dhheAU-16" value="Registrarse" style="ellipse;whiteSpace=wrap;html=1;aspect=fixed;" parent="1" vertex="1">
          <mxGeometry x="9210" y="1330" width="130" height="130" as="geometry" />
        </mxCell>
        <mxCell id="wUyjelmsx-gmg9dhheAU-17" value="1" style="text;html=1;align=center;verticalAlign=middle;resizable=0;points=[];autosize=1;strokeColor=none;fillColor=none;" parent="1" vertex="1">
          <mxGeometry x="9260" y="1345" width="30" height="30" as="geometry" />
        </mxCell>
        <mxCell id="oflLGSr5HDOzJ7QNKQUD-1" value="Valorar contenido" style="ellipse;whiteSpace=wrap;html=1;aspect=fixed;" vertex="1" parent="1">
          <mxGeometry x="8550" y="2332" width="130" height="130" as="geometry" />
        </mxCell>
        <mxCell id="oflLGSr5HDOzJ7QNKQUD-4" style="edgeStyle=orthogonalEdgeStyle;rounded=0;orthogonalLoop=1;jettySize=auto;html=1;exitX=0.5;exitY=1;exitDx=0;exitDy=0;" edge="1" parent="1" source="oflLGSr5HDOzJ7QNKQUD-2" target="oflLGSr5HDOzJ7QNKQUD-3">
          <mxGeometry relative="1" as="geometry" />
        </mxCell>
        <mxCell id="oflLGSr5HDOzJ7QNKQUD-5" style="edgeStyle=orthogonalEdgeStyle;rounded=0;orthogonalLoop=1;jettySize=auto;html=1;exitX=1;exitY=1;exitDx=0;exitDy=0;" edge="1" parent="1" source="oflLGSr5HDOzJ7QNKQUD-2" target="oflLGSr5HDOzJ7QNKQUD-1">
          <mxGeometry relative="1" as="geometry">
            <Array as="points">
              <mxPoint x="8511" y="2290" />
              <mxPoint x="8615" y="2290" />
            </Array>
          </mxGeometry>
        </mxCell>
        <mxCell id="oflLGSr5HDOzJ7QNKQUD-2" value="ver Foro" style="ellipse;whiteSpace=wrap;html=1;aspect=fixed;" vertex="1" parent="1">
          <mxGeometry x="8400" y="2130" width="130" height="130" as="geometry" />
        </mxCell>
        <mxCell id="oflLGSr5HDOzJ7QNKQUD-3" value="votar Encuesta" style="ellipse;whiteSpace=wrap;html=1;aspect=fixed;" vertex="1" parent="1">
          <mxGeometry x="8400" y="2327" width="130" height="130" as="geometry" />
        </mxCell>
        <mxCell id="oflLGSr5HDOzJ7QNKQUD-6" style="edgeStyle=orthogonalEdgeStyle;rounded=0;orthogonalLoop=1;jettySize=auto;html=1;exitX=0.5;exitY=1;exitDx=0;exitDy=0;entryX=0.389;entryY=-0.067;entryDx=0;entryDy=0;entryPerimeter=0;" edge="1" parent="1" source="oflLGSr5HDOzJ7QNKQUD-3" target="aVHQifymBFc_l4_SO7kh-889">
          <mxGeometry relative="1" as="geometry">
            <Array as="points">
              <mxPoint x="8465" y="3700" />
              <mxPoint x="9405" y="3700" />
            </Array>
          </mxGeometry>
        </mxCell>
        <mxCell id="oflLGSr5HDOzJ7QNKQUD-7" value="2" style="text;html=1;align=center;verticalAlign=middle;resizable=0;points=[];autosize=1;strokeColor=none;fillColor=none;" vertex="1" parent="1">
          <mxGeometry x="8450" y="2143" width="30" height="30" as="geometry" />
        </mxCell>
        <mxCell id="oflLGSr5HDOzJ7QNKQUD-8" value="2" style="text;html=1;align=center;verticalAlign=middle;resizable=0;points=[];autosize=1;strokeColor=none;fillColor=none;" vertex="1" parent="1">
          <mxGeometry x="8450" y="2340" width="30" height="30" as="geometry" />
        </mxCell>
        <mxCell id="oflLGSr5HDOzJ7QNKQUD-9" value="2" style="text;html=1;align=center;verticalAlign=middle;resizable=0;points=[];autosize=1;strokeColor=none;fillColor=none;" vertex="1" parent="1">
          <mxGeometry x="8600" y="2345" width="30" height="30" as="geometry" />
        </mxCell>
        <mxCell id="oflLGSr5HDOzJ7QNKQUD-12" value="Valorar contenido" style="ellipse;whiteSpace=wrap;html=1;aspect=fixed;" vertex="1" parent="1">
          <mxGeometry x="6430" y="2290" width="130" height="130" as="geometry" />
        </mxCell>
        <mxCell id="oflLGSr5HDOzJ7QNKQUD-18" style="edgeStyle=orthogonalEdgeStyle;rounded=0;orthogonalLoop=1;jettySize=auto;html=1;exitX=0.5;exitY=1;exitDx=0;exitDy=0;entryX=0.5;entryY=0;entryDx=0;entryDy=0;" edge="1" parent="1" source="oflLGSr5HDOzJ7QNKQUD-13" target="oflLGSr5HDOzJ7QNKQUD-14">
          <mxGeometry relative="1" as="geometry" />
        </mxCell>
        <mxCell id="oflLGSr5HDOzJ7QNKQUD-19" style="edgeStyle=orthogonalEdgeStyle;rounded=0;orthogonalLoop=1;jettySize=auto;html=1;exitX=1;exitY=1;exitDx=0;exitDy=0;entryX=0.5;entryY=0;entryDx=0;entryDy=0;" edge="1" parent="1" source="oflLGSr5HDOzJ7QNKQUD-13" target="oflLGSr5HDOzJ7QNKQUD-12">
          <mxGeometry relative="1" as="geometry">
            <Array as="points">
              <mxPoint x="6391" y="2250" />
              <mxPoint x="6495" y="2250" />
            </Array>
          </mxGeometry>
        </mxCell>
        <mxCell id="oflLGSr5HDOzJ7QNKQUD-13" value="ver Foro" style="ellipse;whiteSpace=wrap;html=1;aspect=fixed;" vertex="1" parent="1">
          <mxGeometry x="6280" y="2088" width="130" height="130" as="geometry" />
        </mxCell>
        <mxCell id="oflLGSr5HDOzJ7QNKQUD-14" value="votar Encuesta" style="ellipse;whiteSpace=wrap;html=1;aspect=fixed;" vertex="1" parent="1">
          <mxGeometry x="6280" y="2285" width="130" height="130" as="geometry" />
        </mxCell>
        <mxCell id="oflLGSr5HDOzJ7QNKQUD-15" value="2" style="text;html=1;align=center;verticalAlign=middle;resizable=0;points=[];autosize=1;strokeColor=none;fillColor=none;" vertex="1" parent="1">
          <mxGeometry x="6330" y="2101" width="30" height="30" as="geometry" />
        </mxCell>
        <mxCell id="oflLGSr5HDOzJ7QNKQUD-16" value="2" style="text;html=1;align=center;verticalAlign=middle;resizable=0;points=[];autosize=1;strokeColor=none;fillColor=none;" vertex="1" parent="1">
          <mxGeometry x="6330" y="2298" width="30" height="30" as="geometry" />
        </mxCell>
        <mxCell id="oflLGSr5HDOzJ7QNKQUD-17" value="2" style="text;html=1;align=center;verticalAlign=middle;resizable=0;points=[];autosize=1;strokeColor=none;fillColor=none;" vertex="1" parent="1">
          <mxGeometry x="6480" y="2303" width="30" height="30" as="geometry" />
        </mxCell>
        <mxCell id="oflLGSr5HDOzJ7QNKQUD-20" style="edgeStyle=orthogonalEdgeStyle;rounded=0;orthogonalLoop=1;jettySize=auto;html=1;exitX=0.5;exitY=1;exitDx=0;exitDy=0;entryX=0.9;entryY=0.967;entryDx=0;entryDy=0;entryPerimeter=0;" edge="1" parent="1" source="oflLGSr5HDOzJ7QNKQUD-14" target="aVHQifymBFc_l4_SO7kh-651">
          <mxGeometry relative="1" as="geometry">
            <Array as="points">
              <mxPoint x="6345" y="3080" />
              <mxPoint x="7781" y="3080" />
            </Array>
          </mxGeometry>
        </mxCell>
      </root>
    </mxGraphModel>
  </diagram>
</mxfile>
